<svg version="1.1" id="Layer_1" xmlns="http://www.w3.org/2000/svg" xmlns:xlink="http://www.w3.org/1999/xlink" x="0px" y="0px"
	 width="100%" viewBox="0 0 585 170" enable-background="new 0 0 585 170" xml:space="preserve">
<path fill="#FFFFFF" opacity="1.000000" stroke="none" 
	d="
M586.000000,79.000000 
	C586.000000,109.641762 586.000000,140.283524 586.000000,171.000000 
	C437.312439,171.000000 288.624878,171.000000 139.390564,170.671432 
	C123.836029,155.212234 108.828247,140.081604 94.002869,124.670273 
	C109.125679,109.643730 124.066086,94.897896 139.006500,80.152054 
	C121.326332,79.010818 104.438942,78.981613 87.552223,79.074196 
	C86.382362,79.080612 84.930611,79.703903 84.096107,80.530891 
	C77.970253,86.601570 71.968391,92.797379 65.633209,99.105988 
	C56.820473,107.796768 48.301979,116.335312 38.005516,126.656013 
	C47.579800,135.355133 56.751232,143.688217 66.043602,152.340652 
	C72.443031,158.773331 78.721512,164.886673 85.000000,171.000000 
	C57.073097,171.000000 29.146198,171.000000 1.000000,171.000000 
	C1.000000,143.312820 1.000000,115.625069 1.315196,87.580788 
	C9.934734,95.820305 18.239077,104.416351 26.785141,113.262604 
	C28.843504,111.382889 30.084778,110.335220 31.229719,109.191139 
	C55.124619,85.314209 79.032021,61.449707 102.884972,37.530914 
	C114.976021,25.406500 126.964920,13.180224 139.000000,1.000000 
	C288.000000,1.000000 437.000031,1.000000 586.000000,1.000000 
	C586.000000,22.098663 586.000000,43.080673 585.577332,64.512207 
	C573.852905,61.985947 564.643555,65.186371 557.206970,74.931763 
	C557.041199,71.682625 556.904114,68.994301 556.770508,66.375824 
	C552.646851,66.375824 548.931641,66.375824 545.402954,66.375824 
	C545.402954,90.450989 545.402954,114.148491 545.402954,137.714355 
	C549.743103,137.714355 553.677429,137.714355 557.510071,137.714355 
	C557.718445,137.135025 557.919006,136.836624 557.919861,136.537674 
	C557.957581,123.223709 557.949463,109.909576 558.010315,96.595749 
	C558.048706,88.202194 562.331177,82.208977 569.390503,78.346214 
	C574.845093,75.361542 580.528564,76.946785 586.000000,79.000000 
M498.395691,139.126022 
	C509.721619,142.341446 528.984924,137.844498 536.983093,120.534592 
	C534.535828,119.334137 532.021179,118.225365 529.630188,116.894386 
	C526.983398,115.421036 525.441284,115.753136 523.589355,118.522736 
	C521.823486,121.163620 519.140137,123.521889 516.346741,125.089844 
	C500.988098,133.710754 483.813934,123.664452 482.322327,104.928207 
	C500.761627,104.928207 519.170105,104.928207 537.999023,104.928207 
	C537.999023,101.341713 538.272888,98.188271 537.949402,95.097336 
	C536.829834,84.399239 532.722961,75.365860 523.439514,69.088974 
	C516.343445,64.291077 508.481628,63.479660 500.355194,64.045418 
	C489.876007,64.774971 481.633270,69.732903 475.934387,78.501213 
	C469.392029,88.567322 467.741669,99.588173 469.974182,111.385040 
	C472.649109,125.519928 484.603302,137.710983 498.395691,139.126022 
M208.000000,60.500046 
	C208.000000,86.240349 208.000000,111.980652 208.000000,137.596466 
	C212.409622,137.596466 216.124222,137.596466 220.191879,137.596466 
	C220.191879,123.266777 220.191879,109.337799 220.191879,94.880127 
	C234.267212,94.880127 247.987091,94.880127 261.607971,94.880127 
	C261.607971,90.613525 261.607971,86.898933 261.607971,82.830292 
	C247.623108,82.830292 234.027100,82.830292 220.322479,82.830292 
	C220.322479,71.750427 220.322479,61.037983 220.322479,49.793365 
	C235.690643,49.793365 250.743256,49.793365 265.743347,49.793365 
	C265.743347,45.652149 265.743347,42.049732 265.743347,38.305786 
	C246.444107,38.305786 227.402740,38.305786 208.000000,38.305786 
	C208.000000,45.571819 208.000000,52.535969 208.000000,60.500046 
M351.000000,85.500427 
	C351.000000,92.500000 351.380524,99.528244 350.855927,106.488281 
	C350.545959,110.600914 349.495087,114.975937 347.562988,118.582314 
	C343.444153,126.270309 333.981750,130.048492 326.543365,127.810768 
	C319.730347,125.761185 315.024078,118.346100 315.006561,109.516220 
	C314.981079,96.683685 315.007812,83.851044 314.990112,71.018478 
	C314.987915,69.421516 314.850708,67.824738 314.776794,66.243500 
	C310.349518,66.243500 306.413727,66.243500 302.000000,66.243500 
	C302.000000,76.266830 301.871857,86.055977 302.040222,95.840019 
	C302.176788,103.776047 302.212952,111.760345 303.149445,119.621284 
	C303.893646,125.868294 306.865509,131.252167 312.349915,135.144608 
	C322.454926,142.316422 336.994812,141.147202 345.942383,134.462479 
	C347.942383,132.968262 349.575836,130.983414 352.225159,128.397659 
	C352.225159,132.414673 352.225159,135.018768 352.225159,137.648712 
	C356.293488,137.648712 360.013702,137.648712 363.763245,137.648712 
	C363.763245,113.697037 363.763245,90.097435 363.763245,66.300331 
	C359.472382,66.300331 355.421570,66.300331 351.000000,66.300331 
	C351.000000,72.563217 351.000000,78.531937 351.000000,85.500427 
M386.000000,82.652725 
	C386.000000,95.799751 385.921112,108.947472 386.035034,122.093506 
	C386.087830,128.184952 388.677032,133.106796 393.892181,136.449173 
	C400.872681,140.922958 408.233582,140.957809 415.795837,138.488739 
	C415.795837,134.229553 415.795837,130.276596 415.795837,125.949524 
	C414.759583,126.342003 414.041107,126.660759 413.295044,126.889633 
	C403.911926,129.768082 399.002838,126.149033 399.000488,116.359718 
	C398.998169,106.873901 399.000000,97.388084 399.000000,87.902267 
	C399.000000,84.657593 399.000000,81.412910 399.000000,77.821976 
	C405.052490,77.821976 410.321625,77.821976 415.670044,77.821976 
	C415.670044,73.736229 415.670044,70.022247 415.670044,65.771774 
	C409.958344,65.771774 404.564423,65.771774 398.838989,65.771774 
	C398.838989,58.965828 398.838989,52.698074 398.838989,46.320305 
	C394.422394,46.320305 390.375916,46.320305 385.795471,46.320305 
	C385.795471,53.022232 385.795471,59.414673 385.795471,66.143578 
	C381.654083,66.143578 378.049377,66.143578 374.310913,66.143578 
	C374.310913,70.228439 374.310913,73.944542 374.310913,78.001022 
	C377.253082,78.001022 379.905334,78.190201 382.518463,77.951279 
	C385.523132,77.676567 386.382050,79.011017 386.000000,82.652725 
M435.000000,58.441734 
	C435.000000,60.867607 435.000000,63.293476 435.000000,66.246964 
	C430.270172,66.246964 426.214081,66.246964 422.274384,66.246964 
	C422.274384,70.390694 422.274384,73.991882 422.274384,78.121841 
	C426.592499,78.121841 430.657745,78.121841 435.000000,78.121841 
	C435.000000,92.615570 435.502350,106.591728 434.869171,120.516251 
	C434.125763,136.864319 450.529327,142.854843 462.337219,138.926971 
	C463.422913,138.565842 464.759888,137.090759 464.870605,136.018341 
	C465.204681,132.783524 464.991241,129.492157 464.991241,125.673622 
	C463.265381,126.253754 462.200043,126.542305 461.189575,126.962776 
	C454.480072,129.754700 448.691284,126.890198 448.101807,119.682495 
	C447.294342,109.810043 447.291595,99.869850 447.017731,89.956650 
	C446.909637,86.044792 447.000000,82.127449 447.000000,77.865227 
	C453.340698,77.865227 458.942627,77.865227 464.693268,77.865227 
	C464.693268,73.782944 464.693268,70.069267 464.693268,65.818863 
	C458.674408,65.818863 452.950470,65.818863 446.888489,65.818863 
	C446.888489,59.016609 446.888489,52.749367 446.888489,46.294388 
	C442.808411,46.294388 439.094971,46.294388 435.000000,46.294388 
	C435.000000,50.211849 435.000000,53.839901 435.000000,58.441734 
M290.000000,114.499969 
	C290.000000,89.097229 290.000000,63.694485 290.000000,38.396923 
	C285.271301,38.396923 281.221344,38.396923 277.248108,38.396923 
	C277.248108,71.704773 277.248108,104.615120 277.248108,137.692352 
	C281.549072,137.692352 285.597473,137.692352 290.000000,137.692352 
	C290.000000,130.092194 290.000000,122.796074 290.000000,114.499969 
z"/>
<path fill="#60C9F8" opacity="1.000000" stroke="none" 
	d="
M138.531342,1.000000 
	C126.964920,13.180224 114.976021,25.406500 102.884972,37.530914 
	C79.032021,61.449707 55.124619,85.314209 31.229719,109.191139 
	C30.084778,110.335220 28.843504,111.382889 26.785141,113.262604 
	C18.239077,104.416351 9.934734,95.820305 1.315196,87.112129 
	C1.000000,86.250000 1.000000,85.500000 1.337577,84.326355 
	C28.810778,56.836002 55.948246,29.771147 83.065651,2.686204 
	C83.502594,2.249781 83.694008,1.567532 84.000000,1.000000 
	C102.020897,1.000000 120.041786,1.000000 138.531342,1.000000 
z"/>
<path fill="#FFFFFF" opacity="1.000000" stroke="none" 
	d="
M83.531342,1.000000 
	C83.694008,1.567532 83.502594,2.249781 83.065651,2.686204 
	C55.948246,29.771147 28.810778,56.836002 1.337577,83.951355 
	C1.000000,56.406429 1.000000,28.812859 1.000000,1.000000 
	C28.353838,1.000000 55.708260,1.000000 83.531342,1.000000 
z"/>
<path fill="#065A9D" opacity="1.000000" stroke="none" 
	d="
M93.820465,124.950966 
	C108.828247,140.081604 123.836029,155.212234 138.921906,170.671432 
	C121.312439,171.000000 103.624878,171.000000 85.468658,171.000000 
	C78.721512,164.886673 72.443031,158.773331 66.279755,152.220490 
	C66.841553,151.499695 67.288139,151.218384 68.008621,150.861572 
	C68.507668,150.494400 68.732826,150.202728 68.944412,149.947815 
	C68.930847,149.984558 68.900711,149.912231 69.307205,149.941528 
	C76.083290,148.163040 82.729942,146.979004 88.388611,142.294220 
	C86.232056,139.820038 84.517250,137.852676 82.968201,135.592072 
	C86.403580,131.875458 89.673195,128.452087 93.162415,125.011368 
	C93.382011,124.994026 93.820465,124.950966 93.820465,124.950966 
z"/>
<path fill="#757575" opacity="1.000000" stroke="none" 
	d="
M586.000000,78.535355 
	C580.528564,76.946785 574.845093,75.361542 569.390503,78.346214 
	C562.331177,82.208977 558.048706,88.202194 558.010315,96.595749 
	C557.949463,109.909576 557.957581,123.223709 557.919861,136.537674 
	C557.919006,136.836624 557.718445,137.135025 557.510071,137.714355 
	C553.677429,137.714355 549.743103,137.714355 545.402954,137.714355 
	C545.402954,114.148491 545.402954,90.450989 545.402954,66.375824 
	C548.931641,66.375824 552.646851,66.375824 556.770508,66.375824 
	C556.904114,68.994301 557.041199,71.682625 557.206970,74.931763 
	C564.643555,65.186371 573.852905,61.985947 585.577332,64.980865 
	C586.000000,69.356903 586.000000,73.713799 586.000000,78.535355 
z"/>
<path fill="#757575" opacity="1.000000" stroke="none" 
	d="
M497.960632,139.074738 
	C484.603302,137.710983 472.649109,125.519928 469.974182,111.385040 
	C467.741669,99.588173 469.392029,88.567322 475.934387,78.501213 
	C481.633270,69.732903 489.876007,64.774971 500.355194,64.045418 
	C508.481628,63.479660 516.343445,64.291077 523.439514,69.088974 
	C532.722961,75.365860 536.829834,84.399239 537.949402,95.097336 
	C538.272888,98.188271 537.999023,101.341713 537.999023,104.928207 
	C519.170105,104.928207 500.761627,104.928207 482.322327,104.928207 
	C483.813934,123.664452 500.988098,133.710754 516.346741,125.089844 
	C519.140137,123.521889 521.823486,121.163620 523.589355,118.522736 
	C525.441284,115.753136 526.983398,115.421036 529.630188,116.894386 
	C532.021179,118.225365 534.535828,119.334137 536.983093,120.534592 
	C528.984924,137.844498 509.721619,142.341446 497.960632,139.074738 
M490.354553,80.923546 
	C487.653107,84.931320 484.951691,88.939102 481.712952,93.744034 
	C497.082184,93.744034 510.747375,93.744034 524.446777,93.744034 
	C523.214417,85.152351 519.081177,78.565811 510.794708,76.622147 
	C504.044495,75.038803 496.602966,74.338943 490.354553,80.923546 
z"/>
<path fill="#757575" opacity="1.000000" stroke="none" 
	d="
M208.000000,60.000084 
	C208.000000,52.535969 208.000000,45.571819 208.000000,38.305786 
	C227.402740,38.305786 246.444107,38.305786 265.743347,38.305786 
	C265.743347,42.049732 265.743347,45.652149 265.743347,49.793365 
	C250.743256,49.793365 235.690643,49.793365 220.322479,49.793365 
	C220.322479,61.037983 220.322479,71.750427 220.322479,82.830292 
	C234.027100,82.830292 247.623108,82.830292 261.607971,82.830292 
	C261.607971,86.898933 261.607971,90.613525 261.607971,94.880127 
	C247.987091,94.880127 234.267212,94.880127 220.191879,94.880127 
	C220.191879,109.337799 220.191879,123.266777 220.191879,137.596466 
	C216.124222,137.596466 212.409622,137.596466 208.000000,137.596466 
	C208.000000,111.980652 208.000000,86.240349 208.000000,60.000084 
z"/>
<path fill="#757575" opacity="1.000000" stroke="none" 
	d="
M351.000000,85.000534 
	C351.000000,78.531937 351.000000,72.563217 351.000000,66.300331 
	C355.421570,66.300331 359.472382,66.300331 363.763245,66.300331 
	C363.763245,90.097435 363.763245,113.697037 363.763245,137.648712 
	C360.013702,137.648712 356.293488,137.648712 352.225159,137.648712 
	C352.225159,135.018768 352.225159,132.414673 352.225159,128.397659 
	C349.575836,130.983414 347.942383,132.968262 345.942383,134.462479 
	C336.994812,141.147202 322.454926,142.316422 312.349915,135.144608 
	C306.865509,131.252167 303.893646,125.868294 303.149445,119.621284 
	C302.212952,111.760345 302.176788,103.776047 302.040222,95.840019 
	C301.871857,86.055977 302.000000,76.266830 302.000000,66.243500 
	C306.413727,66.243500 310.349518,66.243500 314.776794,66.243500 
	C314.850708,67.824738 314.987915,69.421516 314.990112,71.018478 
	C315.007812,83.851044 314.981079,96.683685 315.006561,109.516220 
	C315.024078,118.346100 319.730347,125.761185 326.543365,127.810768 
	C333.981750,130.048492 343.444153,126.270309 347.562988,118.582314 
	C349.495087,114.975937 350.545959,110.600914 350.855927,106.488281 
	C351.380524,99.528244 351.000000,92.500000 351.000000,85.000534 
z"/>
<path fill="#5BC7F8" opacity="1.000000" stroke="none" 
	d="
M94.002869,124.670273 
	C93.820465,124.950966 93.382011,124.994026 92.877007,124.848221 
	C83.557152,116.119530 74.742294,107.536636 65.927444,98.953743 
	C71.968391,92.797379 77.970253,86.601570 84.096107,80.530891 
	C84.930611,79.703903 86.382362,79.080612 87.552223,79.074196 
	C104.438942,78.981613 121.326332,79.010818 139.006500,80.152054 
	C124.066086,94.897896 109.125679,109.643730 94.002869,124.670273 
z"/>
<path fill="#757575" opacity="1.000000" stroke="none" 
	d="
M385.999817,82.172897 
	C386.382050,79.011017 385.523132,77.676567 382.518463,77.951279 
	C379.905334,78.190201 377.253082,78.001022 374.310913,78.001022 
	C374.310913,73.944542 374.310913,70.228439 374.310913,66.143578 
	C378.049377,66.143578 381.654083,66.143578 385.795471,66.143578 
	C385.795471,59.414673 385.795471,53.022232 385.795471,46.320305 
	C390.375916,46.320305 394.422394,46.320305 398.838989,46.320305 
	C398.838989,52.698074 398.838989,58.965828 398.838989,65.771774 
	C404.564423,65.771774 409.958344,65.771774 415.670044,65.771774 
	C415.670044,70.022247 415.670044,73.736229 415.670044,77.821976 
	C410.321625,77.821976 405.052490,77.821976 399.000000,77.821976 
	C399.000000,81.412910 399.000000,84.657593 399.000000,87.902267 
	C399.000000,97.388084 398.998169,106.873901 399.000488,116.359718 
	C399.002838,126.149033 403.911926,129.768082 413.295044,126.889633 
	C414.041107,126.660759 414.759583,126.342003 415.795837,125.949524 
	C415.795837,130.276596 415.795837,134.229553 415.795837,138.488739 
	C408.233582,140.957809 400.872681,140.922958 393.892181,136.449173 
	C388.677032,133.106796 386.087830,128.184952 386.035034,122.093506 
	C385.921112,108.947472 386.000000,95.799751 385.999817,82.172897 
z"/>
<path fill="#757575" opacity="1.000000" stroke="none" 
	d="
M435.000000,57.954842 
	C435.000000,53.839901 435.000000,50.211849 435.000000,46.294388 
	C439.094971,46.294388 442.808411,46.294388 446.888489,46.294388 
	C446.888489,52.749367 446.888489,59.016609 446.888489,65.818863 
	C452.950470,65.818863 458.674408,65.818863 464.693268,65.818863 
	C464.693268,70.069267 464.693268,73.782944 464.693268,77.865227 
	C458.942627,77.865227 453.340698,77.865227 447.000000,77.865227 
	C447.000000,82.127449 446.909637,86.044792 447.017731,89.956650 
	C447.291595,99.869850 447.294342,109.810043 448.101807,119.682495 
	C448.691284,126.890198 454.480072,129.754700 461.189575,126.962776 
	C462.200043,126.542305 463.265381,126.253754 464.991241,125.673622 
	C464.991241,129.492157 465.204681,132.783524 464.870605,136.018341 
	C464.759888,137.090759 463.422913,138.565842 462.337219,138.926971 
	C450.529327,142.854843 434.125763,136.864319 434.869171,120.516251 
	C435.502350,106.591728 435.000000,92.615570 435.000000,78.121841 
	C430.657745,78.121841 426.592499,78.121841 422.274384,78.121841 
	C422.274384,73.991882 422.274384,70.390694 422.274384,66.246964 
	C426.214081,66.246964 430.270172,66.246964 435.000000,66.246964 
	C435.000000,63.293476 435.000000,60.867607 435.000000,57.954842 
z"/>
<path fill="#32B8F5" opacity="1.000000" stroke="none" 
	d="
M65.633209,99.105988 
	C74.742294,107.536636 83.557152,116.119530 92.657410,124.865570 
	C89.673195,128.452087 86.403580,131.875458 82.685410,135.754669 
	C77.791481,140.777740 73.346100,145.344986 68.900711,149.912231 
	C68.900711,149.912231 68.930847,149.984558 68.676117,150.027374 
	C68.192513,150.359177 67.963623,150.648132 67.734734,150.937088 
	C67.288139,151.218384 66.841553,151.499695 66.158813,151.901154 
	C56.751232,143.688217 47.579800,135.355133 38.005516,126.656013 
	C48.301979,116.335312 56.820473,107.796768 65.633209,99.105988 
z"/>
<path fill="#757575" opacity="1.000000" stroke="none" 
	d="
M290.000000,114.999962 
	C290.000000,122.796074 290.000000,130.092194 290.000000,137.692352 
	C285.597473,137.692352 281.549072,137.692352 277.248108,137.692352 
	C277.248108,104.615120 277.248108,71.704773 277.248108,38.396923 
	C281.221344,38.396923 285.271301,38.396923 290.000000,38.396923 
	C290.000000,63.694485 290.000000,89.097229 290.000000,114.999962 
z"/>
<path fill="#0D5298" opacity="1.000000" stroke="none" 
	d="
M69.307205,149.941528 
	C73.346100,145.344986 77.791481,140.777740 82.519653,136.047913 
	C84.517250,137.852676 86.232056,139.820038 88.388611,142.294220 
	C82.729942,146.979004 76.083290,148.163040 69.307205,149.941528 
z"/>
<path fill="#0D5298" opacity="1.000000" stroke="none" 
	d="
M68.008621,150.861572 
	C67.963623,150.648132 68.192513,150.359177 68.689690,149.990631 
	C68.732826,150.202728 68.507668,150.494400 68.008621,150.861572 
z"/>
<path fill="#FFFFFF" opacity="1.000000" stroke="none" 
	d="
M490.661011,80.714417 
	C496.602966,74.338943 504.044495,75.038803 510.794708,76.622147 
	C519.081177,78.565811 523.214417,85.152351 524.446777,93.744034 
	C510.747375,93.744034 497.082184,93.744034 481.712952,93.744034 
	C484.951691,88.939102 487.653107,84.931320 490.661011,80.714417 
z"/>
</svg>