<svg version="1.1" id="Layer_1" xmlns="http://www.w3.org/2000/svg" xmlns:xlink="http://www.w3.org/1999/xlink" x="0px" y="0px"
	 width="100%" viewBox="0 0 424 119" enable-background="new 0 0 424 119" xml:space="preserve">
<path fill="#FEFEFE" opacity="1.000000" stroke="none" 
	d="
M425.000000,72.000000 
	C425.000000,87.988388 425.000000,103.976768 425.000000,119.982574 
	C283.780884,119.982574 142.561737,119.982574 1.171304,119.982574 
	C1.171304,80.333908 1.171304,40.667034 1.171304,1.000000 
	C6.400132,1.000000 11.729612,1.000000 17.319624,1.305503 
	C17.040930,3.132939 16.253706,4.614796 16.000294,6.182918 
	C12.990121,24.809895 10.004278,43.441212 7.128659,62.089375 
	C5.391854,73.352425 3.858586,84.646858 2.329368,96.249435 
	C9.953084,100.716537 17.481297,104.861404 25.239899,109.256638 
	C30.112671,112.105347 34.831856,114.577507 39.373367,117.341591 
	C43.069912,119.591400 46.465816,119.417908 50.154278,117.340172 
	C61.745502,110.810738 73.452927,104.486084 84.985573,97.856369 
	C86.218414,97.147644 87.449997,94.827484 87.246216,93.470520 
	C84.235130,73.419449 81.049774,53.393375 77.704216,33.395084 
	C77.244453,30.646797 75.702560,28.079538 74.661667,25.428467 
	C72.405739,27.195665 70.149818,28.962866 67.589981,30.892147 
	C63.940857,33.941841 60.595646,36.829456 57.256680,39.350628 
	C54.080879,32.684456 51.025299,26.316225 47.665249,20.112915 
	C45.895477,16.845573 43.810013,16.973415 41.942635,20.271469 
	C40.164066,23.412668 38.612389,26.682327 36.630028,29.815538 
	C35.370754,28.187664 34.405582,26.660500 33.520256,25.088367 
	C29.002157,17.065302 24.504686,9.030619 20.000000,1.000000 
	C155.000015,1.000000 290.000031,1.000000 425.000000,1.000000 
	C425.000000,22.101879 425.000000,43.082283 424.679138,64.354782 
	C421.561188,53.396164 413.033875,47.258827 402.065674,48.602295 
	C391.315674,49.919037 383.944824,58.541527 383.791718,69.979362 
	C383.624908,82.436165 390.702820,91.259644 402.135803,92.847633 
	C411.709137,94.177322 420.646484,89.305962 422.898163,81.343849 
	C420.842804,80.494560 418.767365,79.636963 416.821014,78.832710 
	C412.132935,85.267212 406.712372,87.232956 400.613068,85.047081 
	C394.942749,83.014946 391.962585,78.605858 392.177124,72.000000 
	C403.103271,72.000000 414.051636,72.000000 425.000000,72.000000 
M171.143631,89.085587 
	C171.085144,76.387047 171.026642,63.688499 170.960785,50.445534 
	C170.648834,50.322582 170.336868,50.199631 169.141556,49.915127 
	C167.349304,49.915127 165.557068,49.915127 163.501678,49.915127 
	C163.501678,63.982788 163.501678,77.637047 163.501678,92.029739 
	C166.196075,91.627350 168.498108,91.283562 171.032654,90.501877 
	C171.032654,90.501877 170.967575,90.010361 171.143631,89.085587 
M155.592209,37.911060 
	C155.741257,37.603436 155.890305,37.295811 156.196976,36.168499 
	C156.143829,34.782814 156.090668,33.397129 156.024979,31.378557 
	C155.670624,31.216597 155.316254,31.054634 154.041779,30.721872 
	C143.368774,30.789686 132.695786,30.857502 121.497810,30.847570 
	C121.343132,30.933405 121.188454,31.019238 120.367386,31.593287 
	C120.367386,51.474060 120.367386,71.354836 120.367386,91.995590 
	C123.158363,91.599495 125.474258,91.270813 128.029160,90.504944 
	C128.029160,90.504944 127.960075,90.011490 128.134247,89.086349 
	C128.134247,81.352638 128.134247,73.618935 128.134247,65.402283 
	C136.993179,65.402283 145.073120,65.402283 153.322205,65.402283 
	C153.322205,62.704521 153.322205,60.511925 153.322205,57.753426 
	C144.744553,57.753426 136.542969,57.753426 128.440033,57.753426 
	C128.440033,50.940041 128.440033,44.701759 128.440033,37.894760 
	C137.495209,37.894760 146.260239,37.894760 155.592209,37.911060 
M255.424362,30.916121 
	C255.295395,31.273731 255.166428,31.631340 254.892502,32.918217 
	C254.950211,51.951038 255.007919,70.983864 254.993423,90.502541 
	C254.993423,90.502541 255.221359,90.937645 255.633377,91.575783 
	C257.600983,91.575783 259.568604,91.575783 261.722137,91.575783 
	C262.080475,89.942848 262.405884,88.459892 262.773132,86.786324 
	C272.460205,94.621643 282.015045,94.980545 289.641327,88.067909 
	C298.097260,80.403252 300.008087,66.902481 293.145355,57.680683 
	C290.518311,54.150589 286.458191,50.955460 282.369751,49.408092 
	C275.455902,46.791397 268.758759,48.942322 262.832489,54.781624 
	C262.832489,51.477379 262.912231,49.338509 262.816833,47.207481 
	C262.576508,41.836975 262.257172,36.470001 261.502228,30.851196 
	C261.327637,30.878586 261.153076,30.905975 260.170197,30.737009 
	C258.790833,30.791183 257.411438,30.845356 255.424362,30.916121 
M338.429779,60.536839 
	C335.355957,52.426888 328.827911,48.148331 319.848938,48.358730 
	C311.902466,48.544937 305.941010,52.357121 303.929260,58.547142 
	C307.280273,61.110401 309.979797,61.829308 313.589203,58.061356 
	C316.912079,54.592552 321.916565,54.927940 326.206696,57.064846 
	C329.624756,58.767380 331.814636,61.535671 331.017517,66.139572 
	C329.796997,65.830170 328.883453,65.582008 327.962036,65.367645 
	C320.941986,63.734459 314.079498,63.677483 307.756653,67.745018 
	C299.047577,73.347626 299.537994,85.852936 308.617310,90.846664 
	C315.384918,94.568932 323.229156,93.528580 329.387177,88.112930 
	C329.823120,87.729515 330.364014,87.465454 330.982483,87.063866 
	C331.421417,88.761993 331.783600,90.163048 332.116852,91.452332 
	C334.473846,91.452332 336.570801,91.452332 338.704254,91.452332 
	C338.704254,81.218681 338.704254,71.276665 338.429779,60.536839 
M231.501328,72.107742 
	C236.939178,72.107742 242.377029,72.107742 247.734406,72.107742 
	C249.175247,60.230446 242.798920,50.838066 232.463043,48.925629 
	C220.470688,46.706696 210.832993,52.970844 207.713089,65.012222 
	C204.772491,76.361618 210.761734,88.383362 221.085587,91.853783 
	C231.817780,95.461472 242.681946,91.115593 246.627914,81.420700 
	C244.518799,80.585411 242.412918,79.751411 240.403488,78.955612 
	C234.802887,85.585007 229.485260,87.353020 223.332611,84.808655 
	C218.167831,82.672813 215.280563,78.052116 215.592758,72.107803 
	C220.549835,72.107803 225.526764,72.107803 231.501328,72.107742 
M367.812500,75.448639 
	C368.837524,77.350426 370.946381,79.489906 370.595459,81.089935 
	C370.212555,82.835892 367.777618,84.760529 365.836884,85.408623 
	C361.449127,86.873886 356.765045,86.108330 354.073029,82.286278 
	C350.796906,77.634857 348.014526,78.574837 344.551666,81.407417 
	C348.988800,91.142670 358.936127,95.370750 369.176514,92.015831 
	C375.359772,89.990089 379.125366,85.301636 379.063538,79.705742 
	C379.000519,74.001450 375.337311,69.810127 368.694183,67.970306 
	C364.857941,66.907867 360.873138,66.259544 357.191925,64.819641 
	C355.710876,64.240334 353.941193,62.014214 353.982635,60.586281 
	C354.025513,59.106682 355.815186,57.076248 357.344940,56.353031 
	C362.100616,54.104706 367.473663,55.856255 372.107605,60.742851 
	C374.086517,59.903553 376.144989,59.030506 378.249695,58.137844 
	C373.757965,49.786755 364.873962,46.472118 355.754730,49.301411 
	C349.326630,51.295769 345.571167,55.410889 345.380127,60.669502 
	C345.202179,65.568863 348.604462,69.737099 355.069702,71.927773 
	C358.988434,73.255592 363.076721,74.083076 367.812500,75.448639 
M195.097397,50.199982 
	C192.907318,51.840309 190.717239,53.480640 188.371628,55.237465 
	C188.240524,53.549355 188.117035,51.959270 187.982712,50.229538 
	C185.639496,50.229538 183.421494,50.229538 181.152100,50.229538 
	C181.152100,64.129135 181.152100,77.684448 181.152100,91.306923 
	C183.829437,91.306923 186.181244,91.306923 188.751175,91.306923 
	C188.751175,84.554550 188.739746,78.243584 188.753632,71.932663 
	C188.779816,60.038986 192.039444,56.715828 204.060715,56.684242 
	C204.827835,54.567024 205.638519,52.329552 206.962860,48.674431 
	C202.475174,49.179249 199.157532,49.552448 195.097397,50.199982 
M164.448486,40.104950 
	C166.841751,39.677113 169.663986,39.858669 171.465652,38.590412 
	C172.528061,37.842556 172.810883,34.225632 171.929031,32.931808 
	C170.871750,31.380573 168.150284,30.064495 166.238068,30.175301 
	C161.742432,30.435804 160.683182,35.073433 164.448486,40.104950 
z"/>
<path fill="#FFA612" opacity="1.000000" stroke="none" 
	d="
M19.666668,1.000000 
	C24.504686,9.030619 29.002157,17.065302 33.520256,25.088367 
	C34.405582,26.660500 35.370754,28.187664 36.641335,30.102989 
	C36.985527,30.662167 36.987488,30.853924 36.680538,31.189175 
	C35.943779,31.831770 35.404133,32.271736 35.104298,32.838558 
	C25.653093,50.705616 16.200649,68.572166 6.833384,86.483231 
	C5.938779,88.193802 5.598058,90.194038 4.967788,92.370941 
	C4.034870,93.763786 3.134367,94.845490 2.233863,95.927193 
	C3.858586,84.646858 5.391854,73.352425 7.128659,62.089375 
	C10.004278,43.441212 12.990121,24.809895 16.000294,6.182918 
	C16.253706,4.614796 17.040930,3.132939 17.790077,1.305503 
	C18.444445,1.000000 18.888889,1.000000 19.666668,1.000000 
z"/>
<path fill="#777777" opacity="1.000000" stroke="none" 
	d="
M425.000000,71.562500 
	C414.051636,72.000000 403.103271,72.000000 392.177124,72.000000 
	C391.962585,78.605858 394.942749,83.014946 400.613068,85.047081 
	C406.712372,87.232956 412.132935,85.267212 416.821014,78.832710 
	C418.767365,79.636963 420.842804,80.494560 422.898163,81.343849 
	C420.646484,89.305962 411.709137,94.177322 402.135803,92.847633 
	C390.702820,91.259644 383.624908,82.436165 383.791718,69.979362 
	C383.944824,58.541527 391.315674,49.919037 402.065674,48.602295 
	C413.033875,47.258827 421.561188,53.396164 424.679138,64.823441 
	C425.000000,67.041664 425.000000,69.083336 425.000000,71.562500 
M403.522186,65.817642 
	C407.614014,65.817642 411.705841,65.817642 415.815155,65.817642 
	C415.477997,59.397243 411.943085,56.109489 405.570709,55.787231 
	C398.214111,55.415199 393.814636,58.755749 392.612732,65.817490 
	C395.946564,65.817490 399.244659,65.817490 403.522186,65.817642 
z"/>
<path fill="#FFCB2C" opacity="1.000000" stroke="none" 
	d="
M67.893898,30.730068 
	C70.149818,28.962866 72.405739,27.195665 74.661667,25.428467 
	C75.702560,28.079538 77.244453,30.646797 77.704216,33.395084 
	C81.049774,53.393375 84.235130,73.419449 87.246216,93.470520 
	C87.449997,94.827484 86.218414,97.147644 84.985573,97.856369 
	C73.452927,104.486084 61.745502,110.810738 50.154278,117.340172 
	C46.465816,119.417908 43.069912,119.591400 39.373367,117.341591 
	C34.831856,114.577507 30.112671,112.105347 25.608089,109.251442 
	C27.499104,107.651497 29.706161,106.622665 30.907684,104.894669 
	C33.161190,101.653748 34.884052,98.035301 36.737865,94.526466 
	C45.628502,77.698547 54.612583,60.917854 63.271645,43.971272 
	C65.378975,39.847034 66.382721,35.158916 67.893898,30.730068 
z"/>
<path fill="#FFCB31" opacity="1.000000" stroke="none" 
	d="
M67.589981,30.892147 
	C66.382721,35.158916 65.378975,39.847034 63.271645,43.971272 
	C54.612583,60.917854 45.628502,77.698547 36.737865,94.526466 
	C34.884052,98.035301 33.161190,101.653748 30.907684,104.894669 
	C29.706161,106.622665 27.499104,107.651497 25.377697,109.001083 
	C17.481297,104.861404 9.953084,100.716537 2.329367,96.249435 
	C3.134367,94.845490 4.034870,93.763786 5.275404,92.232132 
	C19.425369,77.869812 33.235302,63.957443 47.337410,49.887035 
	C50.836529,46.391685 54.043484,43.054379 57.250435,39.717072 
	C60.595646,36.829456 63.940857,33.941841 67.589981,30.892147 
z"/>
<path fill="#787878" opacity="1.000000" stroke="none" 
	d="
M261.969513,31.101612 
	C262.257172,36.470001 262.576508,41.836975 262.816833,47.207481 
	C262.912231,49.338509 262.832489,51.477379 262.832489,54.781624 
	C268.758759,48.942322 275.455902,46.791397 282.369751,49.408092 
	C286.458191,50.955460 290.518311,54.150589 293.145355,57.680683 
	C300.008087,66.902481 298.097260,80.403252 289.641327,88.067909 
	C282.015045,94.980545 272.460205,94.621643 262.773132,86.786324 
	C262.405884,88.459892 262.080475,89.942848 261.722137,91.575783 
	C259.568604,91.575783 257.600983,91.575783 255.556885,91.151291 
	C255.612869,90.371338 255.474609,90.134636 255.065628,90.016685 
	C255.007919,70.983864 254.950211,51.951038 255.193665,32.338078 
	C255.673920,31.471804 255.852997,31.185669 256.032074,30.899532 
	C257.411438,30.845356 258.790833,30.791183 260.651367,31.005428 
	C261.411499,31.216434 261.690521,31.159021 261.969513,31.101612 
M263.948212,78.227531 
	C269.901978,87.748772 280.972351,88.540260 286.685760,79.753952 
	C289.909271,74.796722 289.942200,69.366112 287.930878,63.987087 
	C285.900452,58.556938 280.849213,55.495384 275.009888,55.761654 
	C269.308990,56.021618 264.210297,59.644096 263.222839,65.375748 
	C262.549713,69.283180 263.446838,73.461136 263.948212,78.227531 
z"/>
<path fill="#787878" opacity="1.000000" stroke="none" 
	d="
M338.567017,60.935741 
	C338.704254,71.276665 338.704254,81.218681 338.704254,91.452332 
	C336.570801,91.452332 334.473846,91.452332 332.116852,91.452332 
	C331.783600,90.163048 331.421417,88.761993 330.982483,87.063866 
	C330.364014,87.465454 329.823120,87.729515 329.387177,88.112930 
	C323.229156,93.528580 315.384918,94.568932 308.617310,90.846664 
	C299.537994,85.852936 299.047577,73.347626 307.756653,67.745018 
	C314.079498,63.677483 320.941986,63.734459 327.962036,65.367645 
	C328.883453,65.582008 329.796997,65.830170 331.017517,66.139572 
	C331.814636,61.535671 329.624756,58.767380 326.206696,57.064846 
	C321.916565,54.927940 316.912079,54.592552 313.589203,58.061356 
	C309.979797,61.829308 307.280273,61.110401 303.929016,58.543175 
	C305.941010,52.357121 311.902466,48.544937 319.848938,48.358730 
	C328.827911,48.148331 335.355957,52.426888 338.567017,60.935741 
M311.366150,82.975479 
	C317.336273,88.498032 325.664368,85.313011 329.553253,79.940849 
	C332.894226,75.325539 331.707336,72.012062 326.051575,71.337242 
	C322.536835,70.917885 318.696381,71.111595 315.324799,72.114716 
	C310.509705,73.547318 309.288757,77.161926 311.366150,82.975479 
z"/>
<path fill="#787878" opacity="1.000000" stroke="none" 
	d="
M231.002518,72.107773 
	C225.526764,72.107803 220.549835,72.107803 215.592758,72.107803 
	C215.280563,78.052116 218.167831,82.672813 223.332611,84.808655 
	C229.485260,87.353020 234.802887,85.585007 240.403488,78.955612 
	C242.412918,79.751411 244.518799,80.585411 246.627914,81.420700 
	C242.681946,91.115593 231.817780,95.461472 221.085587,91.853783 
	C210.761734,88.383362 204.772491,76.361618 207.713089,65.012222 
	C210.832993,52.970844 220.470688,46.706696 232.463043,48.925629 
	C242.798920,50.838066 249.175247,60.230446 247.734406,72.107742 
	C242.377029,72.107742 236.939178,72.107742 231.002518,72.107773 
M218.357910,59.958374 
	C217.459091,61.614784 216.560272,63.271198 215.369080,65.466431 
	C224.016556,65.466431 231.808121,65.466431 239.672073,65.466431 
	C237.481094,55.265995 227.181198,52.417919 218.357910,59.958374 
z"/>
<path fill="#7A7A7A" opacity="1.000000" stroke="none" 
	d="
M156.037521,32.011444 
	C156.090668,33.397129 156.143829,34.782814 155.898346,36.666664 
	C155.312302,37.332626 155.120804,37.575935 155.025269,37.894760 
	C146.260239,37.894760 137.495209,37.894760 128.440033,37.894760 
	C128.440033,44.701759 128.440033,50.940041 128.440033,57.753426 
	C136.542969,57.753426 144.744553,57.753426 153.322205,57.753426 
	C153.322205,60.511925 153.322205,62.704521 153.322205,65.402283 
	C145.073120,65.402283 136.993179,65.402283 128.134247,65.402283 
	C128.134247,73.618935 128.134247,81.352638 127.890625,89.618286 
	C127.572731,90.235214 127.418541,90.358055 127.437820,90.398781 
	C127.529366,90.592155 127.668167,90.763168 127.790146,90.942139 
	C125.474258,91.270813 123.158363,91.599495 120.367386,91.995590 
	C120.367386,71.354836 120.367386,51.474060 120.811676,31.497009 
	C121.511566,31.242260 121.767174,31.083790 122.022781,30.925320 
	C132.695786,30.857502 143.368774,30.789686 154.612534,31.053391 
	C155.468033,31.593754 155.752777,31.802601 156.037521,32.011444 
z"/>
<path fill="#797979" opacity="1.000000" stroke="none" 
	d="
M367.450684,75.291992 
	C363.076721,74.083076 358.988434,73.255592 355.069702,71.927773 
	C348.604462,69.737099 345.202179,65.568863 345.380127,60.669502 
	C345.571167,55.410889 349.326630,51.295769 355.754730,49.301411 
	C364.873962,46.472118 373.757965,49.786755 378.249695,58.137844 
	C376.144989,59.030506 374.086517,59.903553 372.107605,60.742851 
	C367.473663,55.856255 362.100616,54.104706 357.344940,56.353031 
	C355.815186,57.076248 354.025513,59.106682 353.982635,60.586281 
	C353.941193,62.014214 355.710876,64.240334 357.191925,64.819641 
	C360.873138,66.259544 364.857941,66.907867 368.694183,67.970306 
	C375.337311,69.810127 379.000519,74.001450 379.063538,79.705742 
	C379.125366,85.301636 375.359772,89.990089 369.176514,92.015831 
	C358.936127,95.370750 348.988800,91.142670 344.551666,81.407417 
	C348.014526,78.574837 350.796906,77.634857 354.073029,82.286278 
	C356.765045,86.108330 361.449127,86.873886 365.836884,85.408623 
	C367.777618,84.760529 370.212555,82.835892 370.595459,81.089935 
	C370.946381,79.489906 368.837524,77.350426 367.450684,75.291992 
z"/>
<path fill="#797979" opacity="1.000000" stroke="none" 
	d="
M195.468658,50.062813 
	C199.157532,49.552448 202.475174,49.179249 206.962860,48.674431 
	C205.638519,52.329552 204.827835,54.567024 204.060715,56.684242 
	C192.039444,56.715828 188.779816,60.038986 188.753632,71.932663 
	C188.739746,78.243584 188.751175,84.554550 188.751175,91.306923 
	C186.181244,91.306923 183.829437,91.306923 181.152100,91.306923 
	C181.152100,77.684448 181.152100,64.129135 181.152100,50.229538 
	C183.421494,50.229538 185.639496,50.229538 187.982712,50.229538 
	C188.117035,51.959270 188.240524,53.549355 188.371628,55.237465 
	C190.717239,53.480640 192.907318,51.840309 195.468658,50.062813 
z"/>
<path fill="#FFA50E" opacity="1.000000" stroke="none" 
	d="
M57.256676,39.350624 
	C54.043484,43.054379 50.836529,46.391685 47.187935,49.569061 
	C43.494015,43.287983 40.241730,37.166832 36.989449,31.045683 
	C36.987488,30.853924 36.985527,30.662167 36.972263,30.182961 
	C38.612389,26.682327 40.164066,23.412668 41.942635,20.271469 
	C43.810013,16.973415 45.895477,16.845573 47.665249,20.112915 
	C51.025299,26.316225 54.080879,32.684456 57.256676,39.350624 
z"/>
<path fill="#7C7C7C" opacity="1.000000" stroke="none" 
	d="
M170.800140,90.939774 
	C168.498108,91.283562 166.196075,91.627350 163.501678,92.029739 
	C163.501678,77.637047 163.501678,63.982788 163.501678,49.915127 
	C165.557068,49.915127 167.349304,49.915127 169.682373,50.201378 
	C170.412628,50.742371 170.660950,50.909813 170.968140,50.989956 
	C171.026642,63.688499 171.085144,76.387047 170.897339,89.616806 
	C170.575485,90.233063 170.419067,90.358055 170.438019,90.396439 
	C170.533600,90.589951 170.674881,90.760902 170.800140,90.939774 
z"/>
<path fill="#797979" opacity="1.000000" stroke="none" 
	d="
M164.113953,39.891090 
	C160.683182,35.073433 161.742432,30.435804 166.238068,30.175301 
	C168.150284,30.064495 170.871750,31.380573 171.929031,32.931808 
	C172.810883,34.225632 172.528061,37.842556 171.465652,38.590412 
	C169.663986,39.858669 166.841751,39.677113 164.113953,39.891090 
z"/>
<path fill="#6B6B6B" opacity="1.000000" stroke="none" 
	d="
M127.909653,90.723541 
	C127.668167,90.763168 127.529366,90.592155 127.437820,90.398781 
	C127.418541,90.358055 127.572731,90.235214 127.803535,90.080856 
	C127.960075,90.011490 128.029160,90.504944 127.909653,90.723541 
z"/>
<path fill="#6B6B6B" opacity="1.000000" stroke="none" 
	d="
M170.916397,90.720825 
	C170.674881,90.760902 170.533600,90.589951 170.438019,90.396439 
	C170.419067,90.358055 170.575485,90.233063 170.809296,90.079193 
	C170.967575,90.010361 171.032654,90.501877 170.916397,90.720825 
z"/>
<path fill="#6B6B6B" opacity="1.000000" stroke="none" 
	d="
M255.029526,90.259613 
	C255.474609,90.134636 255.612869,90.371338 255.350891,90.832214 
	C255.221359,90.937645 254.993423,90.502541 255.029526,90.259613 
z"/>
<path fill="#6C6C6C" opacity="1.000000" stroke="none" 
	d="
M121.760300,30.886446 
	C121.767174,31.083790 121.511566,31.242260 121.144867,31.252899 
	C121.188454,31.019238 121.343132,30.933405 121.760300,30.886446 
z"/>
<path fill="#6B6B6B" opacity="1.000000" stroke="none" 
	d="
M170.964478,50.717743 
	C170.660950,50.909813 170.412628,50.742371 170.124054,50.282158 
	C170.336868,50.199631 170.648834,50.322582 170.964478,50.717743 
z"/>
<path fill="#6C6C6C" opacity="1.000000" stroke="none" 
	d="
M155.308746,37.902908 
	C155.120804,37.575935 155.312302,37.332626 155.819550,37.076508 
	C155.890305,37.295811 155.741257,37.603436 155.308746,37.902908 
z"/>
<path fill="#6B6B6B" opacity="1.000000" stroke="none" 
	d="
M261.735870,30.976402 
	C261.690521,31.159021 261.411499,31.216434 261.055511,31.103605 
	C261.153076,30.905975 261.327637,30.878586 261.735870,30.976402 
z"/>
<path fill="#6B6B6B" opacity="1.000000" stroke="none" 
	d="
M255.728210,30.907827 
	C255.852997,31.185669 255.673920,31.471804 255.266144,31.873444 
	C255.166428,31.631340 255.295395,31.273731 255.728210,30.907827 
z"/>
<path fill="#6C6C6C" opacity="1.000000" stroke="none" 
	d="
M156.031250,31.695000 
	C155.752777,31.802601 155.468033,31.593754 155.072601,31.138790 
	C155.316254,31.054634 155.670624,31.216597 156.031250,31.695000 
z"/>
<path fill="#F6830C" opacity="1.000000" stroke="none" 
	d="
M36.680538,31.189175 
	C40.241730,37.166832 43.494015,43.287983 46.895767,49.727104 
	C33.235302,63.957443 19.425369,77.869812 5.307818,91.920990 
	C5.598058,90.194038 5.938779,88.193802 6.833384,86.483231 
	C16.200649,68.572166 25.653093,50.705616 35.104298,32.838558 
	C35.404133,32.271736 35.943779,31.831770 36.680538,31.189175 
z"/>
<path fill="#F7F7F7" opacity="1.000000" stroke="none" 
	d="
M403.032471,65.817566 
	C399.244659,65.817490 395.946564,65.817490 392.612732,65.817490 
	C393.814636,58.755749 398.214111,55.415199 405.570709,55.787231 
	C411.943085,56.109489 415.477997,59.397243 415.815155,65.817642 
	C411.705841,65.817642 407.614014,65.817642 403.032471,65.817566 
z"/>
<path fill="#FDFDFD" opacity="1.000000" stroke="none" 
	d="
M263.795044,77.872833 
	C263.446838,73.461136 262.549713,69.283180 263.222839,65.375748 
	C264.210297,59.644096 269.308990,56.021618 275.009888,55.761654 
	C280.849213,55.495384 285.900452,58.556938 287.930878,63.987087 
	C289.942200,69.366112 289.909271,74.796722 286.685760,79.753952 
	C280.972351,88.540260 269.901978,87.748772 263.795044,77.872833 
z"/>
<path fill="#FCFCFC" opacity="1.000000" stroke="none" 
	d="
M311.133728,82.659637 
	C309.288757,77.161926 310.509705,73.547318 315.324799,72.114716 
	C318.696381,71.111595 322.536835,70.917885 326.051575,71.337242 
	C331.707336,72.012062 332.894226,75.325539 329.553253,79.940849 
	C325.664368,85.313011 317.336273,88.498032 311.133728,82.659637 
z"/>
<path fill="#F8F8F8" opacity="1.000000" stroke="none" 
	d="
M218.620331,59.673515 
	C227.181198,52.417919 237.481094,55.265995 239.672073,65.466431 
	C231.808121,65.466431 224.016556,65.466431 215.369080,65.466431 
	C216.560272,63.271198 217.459091,61.614784 218.620331,59.673515 
z"/>
</svg>