<svg version="1.1" id="Layer_1" xmlns="http://www.w3.org/2000/svg" xmlns:xlink="http://www.w3.org/1999/xlink" x="0px" y="0px"
	 width="100%" viewBox="0 0 659 200" enable-background="new 0 0 659 200" xml:space="preserve">
<path fill="#000000" opacity="1.000000" stroke="none" 
	d="
M660.000000,133.000000 
	C660.000000,155.650330 660.000000,178.300644 660.000000,201.000000 
	C480.645782,201.000000 301.291534,201.000000 121.129608,200.688202 
	C126.552513,198.265228 132.877258,196.394547 138.996780,193.999496 
	C160.666824,185.518326 177.119659,170.791916 188.576721,150.735733 
	C200.383392,130.067535 203.653336,107.737366 200.050751,84.244362 
	C196.935989,63.932583 188.000412,46.533165 174.094330,31.678329 
	C160.348785,16.994982 143.426529,7.615548 123.868301,2.932427 
	C123.133430,2.756467 122.617798,1.664895 122.000000,1.000000 
	C301.333344,1.000000 480.666687,1.000000 660.000000,1.000000 
	C660.000000,23.428280 660.000000,45.745483 659.560547,68.531342 
	C652.010864,69.007851 652.008850,69.007851 652.000854,76.150032 
	C651.996338,80.145706 652.000000,84.141403 652.000000,88.137085 
	C652.000000,95.801682 652.000000,103.466270 652.000000,111.130867 
	C645.085876,99.144943 638.917664,87.136711 633.062317,74.977798 
	C630.747131,70.170235 627.745361,67.737144 622.000061,69.534576 
	C622.000061,88.848869 622.048584,108.136948 621.951721,127.424286 
	C621.935791,130.600952 622.270325,133.085098 626.187012,132.969269 
	C629.786133,132.862808 630.071533,130.491302 630.046143,127.548653 
	C629.937622,115.000168 629.999939,102.450203 629.999939,89.900780 
	C637.283875,102.052254 643.986816,114.265106 650.164795,126.737961 
	C652.362122,131.174286 655.031189,133.553482 660.000000,133.000000 
M486.249298,69.001045 
	C482.942749,68.591919 481.932983,70.137733 481.950806,73.334435 
	C482.053070,91.653519 482.062927,109.973877 481.939972,128.292694 
	C481.919006,131.417603 482.996521,132.988083 486.059387,132.960709 
	C489.163635,132.932968 490.102570,131.241180 490.063965,128.173065 
	C489.908936,115.850891 489.990997,103.525612 490.014954,91.201530 
	C490.017181,90.064636 490.228607,88.928162 490.412689,87.097534 
	C494.328735,94.510994 497.712463,101.197731 501.413635,107.703865 
	C502.225677,109.131332 504.186676,110.785866 505.583282,110.754692 
	C507.005737,110.722931 508.886383,109.020386 509.696350,107.565125 
	C513.351807,100.997658 516.698792,94.258469 520.156860,87.581139 
	C521.000061,101.239502 521.071289,114.544289 520.943054,127.847160 
	C520.915710,130.691483 521.397400,133.051315 524.587219,132.851959 
	C527.380859,132.677368 529.112854,131.113449 529.079773,127.628288 
	C528.907471,109.476814 529.029480,91.322685 528.935913,73.170059 
	C528.929199,71.861420 528.249268,69.626961 527.484985,69.439056 
	C525.728516,69.007240 523.305542,68.950241 521.925964,69.883553 
	C519.982971,71.198029 518.402893,73.364799 517.257996,75.485802 
	C513.275757,82.863235 509.548035,90.378090 505.684814,97.916199 
	C505.088562,97.444572 504.718140,97.293221 504.582855,97.023796 
	C501.659180,91.201721 499.096771,85.164558 495.744507,79.602943 
	C493.412445,75.733902 490.002594,72.514503 486.249298,69.001045 
M334.000031,89.637703 
	C333.394989,85.973907 333.107635,82.222176 332.122559,78.663567 
	C329.626892,69.647514 317.665009,67.330307 309.212952,69.489891 
	C300.423401,71.735703 295.946472,75.322563 295.991974,87.021118 
	C296.030792,97.008560 295.754120,107.005829 296.141510,116.978378 
	C296.266876,120.205643 297.349457,123.878433 299.219574,126.459572 
	C303.790710,132.768677 314.851349,134.968323 323.106964,131.932053 
	C330.150513,129.341568 333.966888,123.289879 333.994598,114.575340 
	C334.019989,106.585342 334.000000,98.595207 334.000031,89.637703 
M582.998535,80.458794 
	C582.315979,77.963409 581.726501,75.437645 580.924622,72.981216 
	C580.122742,70.524811 578.962280,68.679596 575.697449,68.905762 
	C572.753784,69.109688 570.823608,69.624573 569.887756,72.902267 
	C567.535400,81.141106 564.786011,89.266121 562.228210,97.446907 
	C559.186035,107.176880 556.076782,116.888130 553.231628,126.675789 
	C552.591370,128.878342 552.010559,131.754761 555.419006,132.736725 
	C558.677490,133.675491 560.279114,132.122925 561.083496,129.015594 
	C562.040405,125.318489 563.305908,121.701248 564.452942,118.000092 
	C570.441162,118.000092 576.094910,118.178017 581.730408,117.934425 
	C585.200745,117.784431 586.720459,118.883492 587.131470,122.466339 
	C587.437500,125.134262 588.413208,127.929459 589.848389,130.186127 
	C590.690918,131.511078 593.086487,132.664688 594.658691,132.521774 
	C597.137146,132.296463 598.744751,130.445892 597.814270,127.526031 
	C592.901611,112.108917 587.986511,96.692596 582.998535,80.458794 
M259.202393,107.019722 
	C262.184906,105.119331 266.305756,103.875595 267.872955,101.158775 
	C270.020599,97.435791 270.812286,92.639786 271.154205,88.223816 
	C271.980835,77.546631 267.149963,68.778389 253.831482,68.986343 
	C248.513641,69.069389 243.185547,69.176491 237.877029,68.939049 
	C234.252243,68.776917 232.894730,69.913925 232.928391,73.715271 
	C233.088852,91.832146 233.070511,109.951767 232.931137,128.068985 
	C232.907822,131.100189 233.765305,132.858124 236.822678,132.950439 
	C240.191101,133.052155 241.182251,131.193481 241.068100,127.925179 
	C240.838730,121.358521 240.999878,114.778221 240.999878,108.461990 
	C247.268265,107.997681 252.819534,107.586494 259.202393,107.019722 
M365.019897,97.527519 
	C366.557922,98.425262 368.046875,99.423805 369.643372,100.201546 
	C374.144135,102.394173 378.854950,104.209915 383.171631,106.711456 
	C387.808777,109.398689 389.443146,115.029053 387.626190,119.856628 
	C386.184448,123.687279 379.805359,127.148651 375.303131,125.846703 
	C371.956146,124.878838 368.722443,123.122208 365.816681,121.157280 
	C363.679718,119.712234 361.907318,117.521851 359.533691,120.126900 
	C357.090881,122.807755 357.798767,125.823280 360.430634,127.825493 
	C368.148254,133.696762 376.485138,135.458954 386.056091,132.170120 
	C393.760925,129.522537 396.232880,123.505692 396.748016,116.778229 
	C397.244873,110.289894 395.854065,103.568176 389.397491,99.879639 
	C384.359070,97.001274 378.999176,94.656586 373.676483,92.314896 
	C370.075531,90.730667 367.983704,87.704834 368.260620,84.346863 
	C368.543945,80.911903 370.400848,77.087669 374.867950,77.055824 
	C379.276886,77.024391 383.740387,77.411003 388.083740,78.166992 
	C390.634979,78.611046 393.115051,80.471626 394.595215,76.804199 
	C396.199005,72.830437 393.283569,70.961227 390.482544,70.374031 
	C385.869354,69.406967 381.048340,69.031677 376.324005,69.093903 
	C370.236267,69.174095 364.545502,70.834641 361.607513,76.932068 
	C358.351746,83.688995 359.628418,91.720200 365.019897,97.527519 
M433.981659,77.762138 
	C433.988037,94.749214 434.067963,111.736862 433.934174,128.722839 
	C433.909515,131.851440 435.387360,132.938141 437.990082,132.933670 
	C440.570007,132.929245 442.223328,131.893021 442.061066,128.739838 
	C441.821747,124.089043 441.999908,119.416756 441.999939,114.753624 
	C442.000031,101.979286 442.000000,89.204948 442.000000,75.999199 
	C446.267181,75.999199 450.058807,75.932686 453.846741,76.022812 
	C456.333069,76.081970 458.033295,75.634560 458.045349,72.564316 
	C458.057007,69.591209 456.563904,68.954239 453.975281,68.970901 
	C442.984070,69.041649 431.991852,69.042320 421.000641,68.970619 
	C418.394806,68.953629 416.937836,69.631416 416.954895,72.588486 
	C416.972748,75.676590 418.719727,75.976990 421.175659,76.042747 
	C425.412384,76.156189 429.641815,76.540352 433.981659,77.762138 
z"/>
<path fill="#FF6C38" opacity="1.000000" stroke="none" 
	d="
M121.531342,1.000000 
	C122.617798,1.664895 123.133430,2.756467 123.868301,2.932427 
	C143.426529,7.615548 160.348785,16.994982 174.094330,31.678329 
	C188.000412,46.533165 196.935989,63.932583 200.050751,84.244362 
	C203.653336,107.737366 200.383392,130.067535 188.576721,150.735733 
	C177.119659,170.791916 160.666824,185.518326 138.996780,193.999496 
	C132.877258,196.394547 126.552513,198.265228 120.660950,200.688202 
	C107.645775,201.000000 94.291542,201.000000 80.809387,200.701263 
	C79.869461,199.937653 79.109734,199.234268 78.237732,199.043167 
	C60.834080,195.229141 45.587223,187.050598 32.694832,175.007095 
	C17.359694,160.681702 6.894507,143.292435 2.898231,122.375877 
	C2.791409,121.816772 1.655832,121.454216 0.999999,121.000000 
	C1.000000,107.645775 1.000000,94.291542 1.298750,80.809387 
	C2.062354,79.869484 2.761609,79.110138 2.957444,78.237778 
	C6.854371,60.878674 14.842988,45.538723 26.985590,32.691311 
	C41.382259,17.459005 58.633900,6.768764 79.621040,2.896575 
	C80.178368,2.793747 80.544632,1.655427 81.000000,0.999999 
	C94.354225,1.000000 107.708458,1.000000 121.531342,1.000000 
M129.864822,82.300888 
	C132.048691,80.283867 134.135147,78.146309 136.442200,76.281723 
	C139.058487,74.167213 140.542206,71.736023 138.693939,68.579956 
	C136.899704,65.516129 134.060349,65.989441 130.784256,66.741386 
	C130.500641,66.449051 130.217041,66.156723 130.297333,65.309937 
	C131.092987,64.822739 131.888657,64.335548 133.095856,63.596359 
	C127.979156,60.190861 123.468689,61.878735 119.921577,64.726433 
	C107.835754,74.429199 96.090706,84.556435 83.200180,95.373734 
	C86.000786,97.556374 87.473869,98.949448 89.175659,99.955757 
	C90.623878,100.812119 92.335541,101.222969 94.303970,102.280960 
	C94.593704,102.541008 94.883430,102.801056 94.840714,103.780472 
	C95.893433,105.596527 96.946152,107.412575 98.232132,109.631012 
	C100.209923,107.964783 101.487907,106.666489 102.980576,105.699623 
	C104.209381,104.903671 105.692741,104.500694 107.163376,104.650398 
	C106.118668,105.648598 105.191475,106.823929 104.006203,107.610245 
	C101.009888,109.598045 100.422867,111.798737 101.826210,115.118088 
	C97.718658,112.588089 85.903656,113.153984 82.321053,116.614548 
	C72.199883,126.390907 62.326065,136.423355 52.302437,146.407028 
	C53.315376,147.909943 54.041801,148.987747 53.645523,150.589783 
	C49.267681,148.588486 45.925159,150.573517 43.109745,157.069275 
	C48.221756,157.414200 53.220966,157.751511 58.169666,158.085419 
	C58.065105,156.162186 57.995266,154.877594 58.899628,153.985077 
	C60.156879,154.976822 61.414131,155.968567 63.224319,157.396484 
	C63.224319,155.931702 63.459885,155.074692 63.187443,154.433548 
	C60.781128,148.770599 63.227818,146.208282 68.411880,143.635132 
	C81.449181,137.163956 93.810623,129.474533 104.408615,120.194252 
	C104.013489,118.121277 103.714752,116.554024 104.288231,115.332359 
	C105.794403,115.575363 108.124016,116.566528 108.684174,115.950005 
	C118.261887,105.408539 127.677055,94.716606 136.958466,83.912170 
	C138.158813,82.514870 138.418503,80.309517 139.113922,78.478470 
	C136.610306,79.192215 135.220490,80.606667 133.603546,81.678459 
	C132.547638,82.378380 131.162155,82.581085 129.864822,82.300888 
M149.074570,61.442593 
	C147.062073,59.996864 145.049591,58.551132 143.037094,57.105404 
	C142.998032,56.255703 142.958954,55.405998 142.919891,54.556297 
	C147.831085,50.469120 152.742264,46.381939 157.801697,42.171394 
	C150.023407,37.005116 142.291641,37.765690 137.103470,43.495975 
	C132.055634,49.071270 131.877777,57.265789 136.677292,63.131378 
	C141.058121,68.485283 148.216339,69.991531 155.106628,66.008247 
	C153.059692,64.503044 151.318665,63.222805 149.074570,61.442593 
M151.139435,60.373905 
	C152.718246,62.447418 154.297058,64.520935 155.747757,66.426201 
	C164.438095,59.309628 165.350143,51.304161 159.607651,44.137470 
	C155.510193,48.105736 151.403030,52.083397 147.147034,56.205196 
	C148.381058,57.500824 149.513794,58.690128 151.139435,60.373905 
M78.299187,101.816284 
	C76.688995,103.443520 75.078804,105.070755 73.468613,106.697990 
	C73.713608,106.980576 73.958611,107.263161 74.203613,107.545738 
	C79.116875,106.456955 84.030136,105.368172 89.753304,104.099915 
	C87.076256,101.564690 85.018433,99.615883 81.994995,96.752609 
	C80.865952,98.363426 79.823517,99.850670 78.299187,101.816284 
M89.583740,108.948624 
	C88.858185,109.778908 88.132629,110.609200 86.573639,112.393219 
	C90.285713,111.676315 92.826225,111.185669 96.013832,110.570053 
	C93.980293,108.208725 93.043274,105.240570 89.583740,108.948624 
z"/>
<path fill="#000000" opacity="1.000000" stroke="none" 
	d="
M0.999999,121.468658 
	C1.655832,121.454216 2.791409,121.816772 2.898231,122.375877 
	C6.894507,143.292435 17.359694,160.681702 32.694832,175.007095 
	C45.587223,187.050598 60.834080,195.229141 78.237732,199.043167 
	C79.109734,199.234268 79.869461,199.937653 80.340729,200.701263 
	C53.739319,201.000000 27.478636,201.000000 1.000000,201.000000 
	C1.000000,174.646179 1.000000,148.291748 0.999999,121.468658 
z"/>
<path fill="#000000" opacity="1.000000" stroke="none" 
	d="
M80.531342,0.999999 
	C80.544632,1.655427 80.178368,2.793747 79.621040,2.896575 
	C58.633900,6.768764 41.382259,17.459005 26.985590,32.691311 
	C14.842988,45.538723 6.854371,60.878674 2.957444,78.237778 
	C2.761609,79.110138 2.062354,79.869484 1.298750,80.340729 
	C1.000000,53.739319 1.000000,27.478636 1.000000,1.000000 
	C27.353827,1.000000 53.708256,1.000000 80.531342,0.999999 
z"/>
<path fill="#FF6C37" opacity="1.000000" stroke="none" 
	d="
M660.000000,132.531342 
	C655.031189,133.553482 652.362122,131.174286 650.164795,126.737961 
	C643.986816,114.265106 637.283875,102.052254 629.999939,89.900780 
	C629.999939,102.450203 629.937622,115.000168 630.046143,127.548653 
	C630.071533,130.491302 629.786133,132.862808 626.187012,132.969269 
	C622.270325,133.085098 621.935791,130.600952 621.951721,127.424286 
	C622.048584,108.136948 622.000061,88.848869 622.000061,69.534576 
	C627.745361,67.737144 630.747131,70.170235 633.062317,74.977798 
	C638.917664,87.136711 645.085876,99.144943 652.000000,111.130867 
	C652.000000,103.466270 652.000000,95.801682 652.000000,88.137085 
	C652.000000,84.141403 651.996338,80.145706 652.000854,76.150032 
	C652.008850,69.007851 652.010864,69.007851 659.560547,69.000000 
	C660.000000,90.020897 660.000000,111.041786 660.000000,132.531342 
z"/>
<path fill="#FF6C37" opacity="1.000000" stroke="none" 
	d="
M486.661743,69.002975 
	C490.002594,72.514503 493.412445,75.733902 495.744507,79.602943 
	C499.096771,85.164558 501.659180,91.201721 504.582855,97.023796 
	C504.718140,97.293221 505.088562,97.444572 505.684814,97.916199 
	C509.548035,90.378090 513.275757,82.863235 517.257996,75.485802 
	C518.402893,73.364799 519.982971,71.198029 521.925964,69.883553 
	C523.305542,68.950241 525.728516,69.007240 527.484985,69.439056 
	C528.249268,69.626961 528.929199,71.861420 528.935913,73.170059 
	C529.029480,91.322685 528.907471,109.476814 529.079773,127.628288 
	C529.112854,131.113449 527.380859,132.677368 524.587219,132.851959 
	C521.397400,133.051315 520.915710,130.691483 520.943054,127.847160 
	C521.071289,114.544289 521.000061,101.239502 520.156860,87.581139 
	C516.698792,94.258469 513.351807,100.997658 509.696350,107.565125 
	C508.886383,109.020386 507.005737,110.722931 505.583282,110.754692 
	C504.186676,110.785866 502.225677,109.131332 501.413635,107.703865 
	C497.712463,101.197731 494.328735,94.510994 490.412689,87.097534 
	C490.228607,88.928162 490.017181,90.064636 490.014954,91.201530 
	C489.990997,103.525612 489.908936,115.850891 490.063965,128.173065 
	C490.102570,131.241180 489.163635,132.932968 486.059387,132.960709 
	C482.996521,132.988083 481.919006,131.417603 481.939972,128.292694 
	C482.062927,109.973877 482.053070,91.653519 481.950806,73.334435 
	C481.932983,70.137733 482.942749,68.591919 486.661743,69.002975 
z"/>
<path fill="#FF6C37" opacity="1.000000" stroke="none" 
	d="
M334.000000,90.121414 
	C334.000000,98.595207 334.019989,106.585342 333.994598,114.575340 
	C333.966888,123.289879 330.150513,129.341568 323.106964,131.932053 
	C314.851349,134.968323 303.790710,132.768677 299.219574,126.459572 
	C297.349457,123.878433 296.266876,120.205643 296.141510,116.978378 
	C295.754120,107.005829 296.030792,97.008560 295.991974,87.021118 
	C295.946472,75.322563 300.423401,71.735703 309.212952,69.489891 
	C317.665009,67.330307 329.626892,69.647514 332.122559,78.663567 
	C333.107635,82.222176 333.394989,85.973907 334.000000,90.121414 
M326.000000,103.488251 
	C325.999756,98.333626 326.109375,93.176086 325.972626,88.025085 
	C325.784882,80.952774 321.207428,76.022141 315.037140,76.001266 
	C308.415344,75.978859 304.031158,80.796089 304.007080,88.204720 
	C303.977875,97.183640 303.897491,106.164345 304.037994,115.141167 
	C304.128937,120.951363 308.021851,124.973633 314.028503,125.951599 
	C318.263611,126.641129 323.869049,123.077408 324.894623,118.165413 
	C325.822632,113.720924 325.673950,109.051628 326.000000,103.488251 
z"/>
<path fill="#FF6C37" opacity="1.000000" stroke="none" 
	d="
M583.035400,80.867393 
	C587.986511,96.692596 592.901611,112.108917 597.814270,127.526031 
	C598.744751,130.445892 597.137146,132.296463 594.658691,132.521774 
	C593.086487,132.664688 590.690918,131.511078 589.848389,130.186127 
	C588.413208,127.929459 587.437500,125.134262 587.131470,122.466339 
	C586.720459,118.883492 585.200745,117.784431 581.730408,117.934425 
	C576.094910,118.178017 570.441162,118.000092 564.452942,118.000092 
	C563.305908,121.701248 562.040405,125.318489 561.083496,129.015594 
	C560.279114,132.122925 558.677490,133.675491 555.419006,132.736725 
	C552.010559,131.754761 552.591370,128.878342 553.231628,126.675789 
	C556.076782,116.888130 559.186035,107.176880 562.228210,97.446907 
	C564.786011,89.266121 567.535400,81.141106 569.887756,72.902267 
	C570.823608,69.624573 572.753784,69.109688 575.697449,68.905762 
	C578.962280,68.679596 580.122742,70.524811 580.924622,72.981216 
	C581.726501,75.437645 582.315979,77.963409 583.035400,80.867393 
M571.000793,96.475075 
	C569.465088,101.569771 567.929321,106.664467 566.406250,111.717041 
	C572.331116,111.717041 578.067932,111.717041 584.229919,111.717041 
	C581.332092,102.097954 578.547913,92.856270 575.432861,82.516396 
	C573.768738,87.540314 572.424866,91.597366 571.000793,96.475075 
z"/>
<path fill="#FF6C37" opacity="1.000000" stroke="none" 
	d="
M258.786591,107.097519 
	C252.819534,107.586494 247.268265,107.997681 240.999878,108.461990 
	C240.999878,114.778221 240.838730,121.358521 241.068100,127.925179 
	C241.182251,131.193481 240.191101,133.052155 236.822678,132.950439 
	C233.765305,132.858124 232.907822,131.100189 232.931137,128.068985 
	C233.070511,109.951767 233.088852,91.832146 232.928391,73.715271 
	C232.894730,69.913925 234.252243,68.776917 237.877029,68.939049 
	C243.185547,69.176491 248.513641,69.069389 253.831482,68.986343 
	C267.149963,68.778389 271.980835,77.546631 271.154205,88.223816 
	C270.812286,92.639786 270.020599,97.435791 267.872955,101.158775 
	C266.305756,103.875595 262.184906,105.119331 258.786591,107.097519 
M241.000000,84.552338 
	C241.000000,89.964149 241.000000,95.375954 241.000000,101.061638 
	C248.935120,100.439514 257.480438,103.595840 261.888153,94.840080 
	C264.099915,90.446487 264.344635,85.164490 261.171356,80.799309 
	C255.891663,73.536552 248.213638,76.604721 241.000000,76.028938 
	C241.000000,78.963020 241.000000,81.267937 241.000000,84.552338 
z"/>
<path fill="#FF6C37" opacity="1.000000" stroke="none" 
	d="
M364.755249,97.260010 
	C359.628418,91.720200 358.351746,83.688995 361.607513,76.932068 
	C364.545502,70.834641 370.236267,69.174095 376.324005,69.093903 
	C381.048340,69.031677 385.869354,69.406967 390.482544,70.374031 
	C393.283569,70.961227 396.199005,72.830437 394.595215,76.804199 
	C393.115051,80.471626 390.634979,78.611046 388.083740,78.166992 
	C383.740387,77.411003 379.276886,77.024391 374.867950,77.055824 
	C370.400848,77.087669 368.543945,80.911903 368.260620,84.346863 
	C367.983704,87.704834 370.075531,90.730667 373.676483,92.314896 
	C378.999176,94.656586 384.359070,97.001274 389.397491,99.879639 
	C395.854065,103.568176 397.244873,110.289894 396.748016,116.778229 
	C396.232880,123.505692 393.760925,129.522537 386.056091,132.170120 
	C376.485138,135.458954 368.148254,133.696762 360.430634,127.825493 
	C357.798767,125.823280 357.090881,122.807755 359.533691,120.126900 
	C361.907318,117.521851 363.679718,119.712234 365.816681,121.157280 
	C368.722443,123.122208 371.956146,124.878838 375.303131,125.846703 
	C379.805359,127.148651 386.184448,123.687279 387.626190,119.856628 
	C389.443146,115.029053 387.808777,109.398689 383.171631,106.711456 
	C378.854950,104.209915 374.144135,102.394173 369.643372,100.201546 
	C368.046875,99.423805 366.557922,98.425262 364.755249,97.260010 
z"/>
<path fill="#FF6C37" opacity="1.000000" stroke="none" 
	d="
M433.927979,77.286530 
	C429.641815,76.540352 425.412384,76.156189 421.175659,76.042747 
	C418.719727,75.976990 416.972748,75.676590 416.954895,72.588486 
	C416.937836,69.631416 418.394806,68.953629 421.000641,68.970619 
	C431.991852,69.042320 442.984070,69.041649 453.975281,68.970901 
	C456.563904,68.954239 458.057007,69.591209 458.045349,72.564316 
	C458.033295,75.634560 456.333069,76.081970 453.846741,76.022812 
	C450.058807,75.932686 446.267181,75.999199 442.000000,75.999199 
	C442.000000,89.204948 442.000031,101.979286 441.999939,114.753624 
	C441.999908,119.416756 441.821747,124.089043 442.061066,128.739838 
	C442.223328,131.893021 440.570007,132.929245 437.990082,132.933670 
	C435.387360,132.938141 433.909515,131.851440 433.934174,128.722839 
	C434.067963,111.736862 433.988037,94.749214 433.927979,77.286530 
z"/>
<path fill="#FFFBF9" opacity="1.000000" stroke="none" 
	d="
M54.768230,150.065552 
	C54.041801,148.987747 53.315376,147.909943 52.302437,146.407028 
	C62.326065,136.423355 72.199883,126.390907 82.321053,116.614548 
	C85.903656,113.153984 97.718658,112.588089 102.368317,114.795120 
	C103.153999,114.740425 103.322533,114.911964 103.416023,114.986771 
	C103.714752,116.554024 104.013489,118.121277 104.408615,120.194252 
	C93.810623,129.474533 81.449181,137.163956 68.411880,143.635132 
	C63.227818,146.208282 60.781128,148.770599 63.187443,154.433548 
	C63.459885,155.074692 63.224319,155.931702 63.224319,157.396484 
	C61.414131,155.968567 60.156879,154.976822 58.394016,153.801468 
	C56.848347,152.433762 55.808289,151.249664 54.768230,150.065552 
z"/>
<path fill="#FFFBFA" opacity="1.000000" stroke="none" 
	d="
M93.930649,101.830933 
	C92.335541,101.222969 90.623878,100.812119 89.175659,99.955757 
	C87.473869,98.949448 86.000786,97.556374 83.200180,95.373734 
	C96.090706,84.556435 107.835754,74.429199 119.921577,64.726433 
	C123.468689,61.878735 127.979156,60.190861 133.095856,63.596359 
	C131.888657,64.335548 131.092987,64.822739 129.805420,65.720642 
	C117.519218,78.031204 105.724937,89.931068 93.930649,101.830933 
z"/>
<path fill="#FFFAF8" opacity="1.000000" stroke="none" 
	d="
M131.258484,67.127426 
	C134.060349,65.989441 136.899704,65.516129 138.693939,68.579956 
	C140.542206,71.736023 139.058487,74.167213 136.442200,76.281723 
	C134.135147,78.146309 132.048691,80.283867 129.915619,82.654526 
	C129.966400,83.008156 129.994095,82.975380 129.649536,82.891479 
	C126.860992,85.202995 124.417023,87.598404 121.986855,89.999619 
	C122.000664,90.005417 121.992737,89.976715 121.643845,89.901657 
	C119.189865,92.222267 117.084778,94.617935 114.994568,97.011032 
	C115.009430,97.008476 115.021317,96.980743 114.871994,96.559555 
	C112.141510,98.763649 109.560356,101.388931 107.004173,103.995209 
	C107.029152,103.976212 107.063278,103.923546 107.063278,103.923553 
	C105.692741,104.500694 104.209381,104.903671 102.980576,105.699623 
	C101.487907,106.666489 100.209923,107.964783 98.232132,109.631012 
	C96.946152,107.412575 95.893433,105.596527 95.306213,103.284653 
	C107.600639,90.901703 119.429558,79.014565 131.258484,67.127426 
z"/>
<path fill="#FFFBF9" opacity="1.000000" stroke="none" 
	d="
M149.326111,61.692581 
	C151.318665,63.222805 153.059692,64.503044 155.106628,66.008247 
	C148.216339,69.991531 141.058121,68.485283 136.677292,63.131378 
	C131.877777,57.265789 132.055634,49.071270 137.103470,43.495975 
	C142.291641,37.765690 150.023407,37.005116 157.801697,42.171394 
	C152.742264,46.381939 147.831085,50.469120 142.919891,54.556297 
	C142.958954,55.405998 142.998032,56.255703 143.037094,57.105404 
	C145.049591,58.551132 147.062073,59.996864 149.326111,61.692581 
z"/>
<path fill="#FFF9F7" opacity="1.000000" stroke="none" 
	d="
M103.852127,115.159561 
	C103.322533,114.911964 103.153999,114.740425 102.940170,114.507889 
	C100.422867,111.798737 101.009888,109.598045 104.006203,107.610245 
	C105.191475,106.823929 106.118668,105.648598 107.113327,104.286972 
	C107.063278,103.923546 107.029152,103.976212 107.349838,104.086952 
	C110.120796,101.792046 112.571053,99.386391 115.021317,96.980743 
	C115.021317,96.980743 115.009430,97.008476 115.344917,97.094040 
	C117.037460,96.072685 118.548508,95.103996 119.704262,93.816399 
	C120.680870,92.728394 121.245674,91.270760 121.992737,89.976715 
	C121.992737,89.976715 122.000664,90.005417 122.127945,90.426308 
	C124.834846,88.223259 127.414474,85.599319 129.994095,82.975380 
	C129.994095,82.975380 129.966400,83.008156 129.945343,83.007339 
	C131.162155,82.581085 132.547638,82.378380 133.603546,81.678459 
	C135.220490,80.606667 136.610306,79.192215 139.113922,78.478470 
	C138.418503,80.309517 138.158813,82.514870 136.958466,83.912170 
	C127.677055,94.716606 118.261887,105.408539 108.684174,115.950005 
	C108.124016,116.566528 105.794403,115.575363 103.852127,115.159561 
z"/>
<path fill="#FFF2EE" opacity="1.000000" stroke="none" 
	d="
M150.892990,60.126667 
	C149.513794,58.690128 148.381058,57.500824 147.147034,56.205196 
	C151.403030,52.083397 155.510193,48.105736 159.607651,44.137470 
	C165.350143,51.304161 164.438095,59.309628 155.747757,66.426201 
	C154.297058,64.520935 152.718246,62.447418 150.892990,60.126667 
z"/>
<path fill="#FF7240" opacity="1.000000" stroke="none" 
	d="
M131.021362,66.934402 
	C119.429558,79.014565 107.600639,90.901703 95.472443,102.924973 
	C94.883430,102.801056 94.593704,102.541008 94.117310,102.055946 
	C105.724937,89.931068 117.519218,78.031204 129.623459,65.997864 
	C130.217041,66.156723 130.500641,66.449051 131.021362,66.934402 
z"/>
<path fill="#FFF8F5" opacity="1.000000" stroke="none" 
	d="
M54.206879,150.327667 
	C55.808289,151.249664 56.848347,152.433762 57.906918,153.605423 
	C57.995266,154.877594 58.065105,156.162186 58.169666,158.085419 
	C53.220966,157.751511 48.221756,157.414200 43.109745,157.069275 
	C45.925159,150.573517 49.267681,148.588486 54.206879,150.327667 
z"/>
<path fill="#FFF9F7" opacity="1.000000" stroke="none" 
	d="
M78.540138,101.577103 
	C79.823517,99.850670 80.865952,98.363426 81.994995,96.752609 
	C85.018433,99.615883 87.076256,101.564690 89.753304,104.099915 
	C84.030136,105.368172 79.116875,106.456955 74.203613,107.545738 
	C73.958611,107.263161 73.713608,106.980576 73.468613,106.697990 
	C75.078804,105.070755 76.688995,103.443520 78.540138,101.577103 
z"/>
<path fill="#FFF0EB" opacity="1.000000" stroke="none" 
	d="
M89.829285,108.690933 
	C93.043274,105.240570 93.980293,108.208725 96.013832,110.570053 
	C92.826225,111.185669 90.285713,111.676315 86.573639,112.393219 
	C88.132629,110.609200 88.858185,109.778908 89.829285,108.690933 
z"/>
<path fill="#000000" opacity="1.000000" stroke="none" 
	d="
M326.000000,103.984856 
	C325.673950,109.051628 325.822632,113.720924 324.894623,118.165413 
	C323.869049,123.077408 318.263611,126.641129 314.028503,125.951599 
	C308.021851,124.973633 304.128937,120.951363 304.037994,115.141167 
	C303.897491,106.164345 303.977875,97.183640 304.007080,88.204720 
	C304.031158,80.796089 308.415344,75.978859 315.037140,76.001266 
	C321.207428,76.022141 325.784882,80.952774 325.972626,88.025085 
	C326.109375,93.176086 325.999756,98.333626 326.000000,103.984856 
z"/>
<path fill="#000000" opacity="1.000000" stroke="none" 
	d="
M571.040894,96.064743 
	C572.424866,91.597366 573.768738,87.540314 575.432861,82.516396 
	C578.547913,92.856270 581.332092,102.097954 584.229919,111.717041 
	C578.067932,111.717041 572.331116,111.717041 566.406250,111.717041 
	C567.929321,106.664467 569.465088,101.569771 571.040894,96.064743 
z"/>
<path fill="#000000" opacity="1.000000" stroke="none" 
	d="
M241.000000,84.062599 
	C241.000000,81.267937 241.000000,78.963020 241.000000,76.028938 
	C248.213638,76.604721 255.891663,73.536552 261.171356,80.799309 
	C264.344635,85.164490 264.099915,90.446487 261.888153,94.840080 
	C257.480438,103.595840 248.935120,100.439514 241.000000,101.061638 
	C241.000000,95.375954 241.000000,89.964149 241.000000,84.062599 
z"/>
<path fill="#FF6C38" opacity="1.000000" stroke="none" 
	d="
M129.649536,82.891479 
	C127.414474,85.599319 124.834846,88.223259 122.114136,90.420509 
	C124.417023,87.598404 126.860992,85.202995 129.649536,82.891479 
z"/>
<path fill="#FF6C38" opacity="1.000000" stroke="none" 
	d="
M114.871994,96.559555 
	C112.571053,99.386391 110.120796,101.792046 107.324860,104.105949 
	C109.560356,101.388931 112.141510,98.763649 114.871994,96.559555 
z"/>
<path fill="#FF6C38" opacity="1.000000" stroke="none" 
	d="
M121.643837,89.901657 
	C121.245674,91.270760 120.680870,92.728394 119.704262,93.816399 
	C118.548508,95.103996 117.037460,96.072685 115.330048,97.096603 
	C117.084778,94.617935 119.189865,92.222267 121.643837,89.901657 
z"/>
</svg>