<svg version="1.1" id="Layer_1" xmlns="http://www.w3.org/2000/svg" xmlns:xlink="http://www.w3.org/1999/xlink" x="0px" y="0px"
	 width="100%" viewBox="0 0 900 500" enable-background="new 0 0 900 500" xml:space="preserve">
<path fill="#FFFFFF" opacity="1.000000" stroke="none" 
	d="
M605.000000,501.000000 
	C403.333344,501.000000 202.166672,501.000000 1.000000,501.000000 
	C1.000000,334.333344 1.000000,167.666672 1.000000,1.000000 
	C301.000000,1.000000 601.000000,1.000000 901.000000,1.000000 
	C901.000000,167.666672 901.000000,334.333344 901.000000,501.000000 
	C802.500000,501.000000 704.000000,501.000000 605.000000,501.000000 
M172.907135,153.588074 
	C165.194382,151.108368 157.644943,147.723450 149.742050,146.297577 
	C102.547386,137.782394 59.653095,156.745041 34.561253,197.609222 
	C20.289883,220.851364 15.970238,246.386490 20.837086,273.293488 
	C25.509647,299.126373 38.186661,320.432037 58.060223,337.444305 
	C68.118492,346.054413 79.506905,352.496948 92.048615,356.796844 
	C97.404228,358.632996 101.191460,356.854187 101.414131,352.166962 
	C101.726990,345.580963 101.493195,338.968994 101.493195,331.956787 
	C99.283859,332.272003 97.833534,332.507874 96.375862,332.682465 
	C82.420471,334.353851 67.938904,331.717834 62.593773,315.898804 
	C60.840054,310.708649 55.218723,306.821228 51.349346,302.352539 
	C50.225483,301.054626 49.043720,299.806854 47.789639,298.427338 
	C53.516483,295.260162 59.293438,296.085693 64.506836,301.120209 
	C67.579041,304.087036 69.941376,307.783936 72.663002,311.119812 
	C79.195175,319.126251 90.482109,321.838623 99.676147,317.458313 
	C100.831062,316.908081 101.829308,315.528931 102.379143,314.300598 
	C104.178192,310.281799 105.736511,306.155212 107.235153,302.446777 
	C100.333778,300.419189 92.707840,298.768707 85.531158,295.967346 
	C55.686260,284.317444 53.030598,238.977570 67.621529,222.025589 
	C69.705177,219.604767 69.469757,217.413559 69.296234,214.423874 
	C68.898636,207.573486 69.510551,200.640381 70.057297,193.768295 
	C70.386101,189.635391 73.070396,187.968002 76.968544,189.486557 
	C83.887451,192.181900 90.865494,194.827576 97.471107,198.179260 
	C100.497978,199.715088 103.116867,200.494431 106.349861,199.728073 
	C121.309166,196.182083 136.269669,195.870758 151.238220,199.761398 
	C154.554306,200.623291 157.365707,199.767502 160.563339,198.078888 
	C167.103241,194.625275 174.119781,192.030197 181.060333,189.398819 
	C184.303467,188.169250 187.176666,189.049301 187.426956,193.162445 
	C187.864578,200.353912 188.043747,207.560822 188.380264,214.758972 
	C188.467819,216.631821 188.046478,219.046783 189.029388,220.279190 
	C198.736649,232.450546 199.759155,246.372757 197.577469,260.938019 
	C194.693161,280.193939 184.076126,293.035370 165.288101,298.644196 
	C160.077667,300.199646 154.640366,300.995087 148.991409,302.206940 
	C155.322067,309.005493 156.142212,317.205109 156.099792,325.646576 
	C156.057953,333.975769 155.931198,342.304932 155.951736,350.633820 
	C155.966431,356.585754 159.084702,358.787048 164.665070,356.963989 
	C204.606766,343.915253 235.727951,302.942810 237.829468,260.639679 
	C240.134476,214.240494 215.588089,173.461166 172.907135,153.588074 
M354.109009,297.394684 
	C351.375885,292.146027 347.689392,287.169983 346.095367,281.595612 
	C341.959106,267.130829 342.051086,252.292068 345.183136,237.614716 
	C348.501709,222.063171 358.329132,212.788422 373.022736,211.082520 
	C384.184418,209.786652 395.343903,210.212814 406.113922,213.680222 
	C410.474762,215.084213 412.410034,214.376709 413.158325,209.668442 
	C413.989960,204.435562 415.204895,199.223145 416.760071,194.157516 
	C418.198639,189.471863 416.820129,187.243774 412.205353,185.700180 
	C395.584869,180.140732 378.625397,179.299728 361.454224,181.670547 
	C337.683167,184.952606 322.721222,198.745972 315.988739,221.422577 
	C308.655609,246.122147 308.778992,271.040039 316.215271,295.656830 
	C320.123657,308.594971 328.023224,319.081421 339.867981,326.113190 
	C349.065247,331.573273 359.255920,333.722748 369.794098,334.624481 
	C386.684418,336.069824 402.934387,333.938629 418.344666,326.482544 
	C422.189331,324.622345 423.758575,322.254150 423.690735,317.667664 
	C423.375244,296.349457 423.562531,275.023987 423.533203,253.701187 
	C423.530273,251.581985 423.278503,249.463135 423.109863,246.841400 
	C406.430603,246.841400 390.135071,246.767914 373.844421,247.016190 
	C372.820465,247.031815 371.038361,249.521362 370.968323,250.927689 
	C370.653717,257.242249 371.006073,263.588013 370.764069,269.908997 
	C370.621368,273.636932 372.039703,275.010010 375.661499,274.911224 
	C381.054871,274.764069 386.455200,274.873077 391.759705,274.873077 
	C391.759705,285.059998 391.759705,294.503235 391.759705,304.364410 
	C378.622284,305.606995 365.625824,307.847626 354.109009,297.394684 
M593.073120,216.499985 
	C593.073120,208.002625 592.900024,199.500168 593.148865,191.010117 
	C593.266785,186.989365 591.802002,185.786865 587.921997,185.922394 
	C580.766235,186.172287 573.592407,186.117599 566.432434,185.938599 
	C563.132996,185.856094 561.607361,186.690552 561.614319,190.355652 
	C561.701355,236.174850 561.702820,281.994324 561.612000,327.813507 
	C561.604675,331.487610 563.140137,332.300262 566.416016,332.222961 
	C573.576538,332.053955 580.754761,331.931396 587.904175,332.259613 
	C592.272278,332.460144 593.188660,330.707703 593.148132,326.733551 
	C592.972839,309.573914 593.073059,292.411438 593.073059,275.250000 
	C593.073059,273.456360 593.073120,271.662720 593.073120,269.829742 
	C607.328857,269.829742 621.073303,269.829742 635.249146,269.829742 
	C635.249146,271.729187 635.256165,273.357971 635.248169,274.986664 
	C635.165283,291.799591 635.089661,308.612549 634.990540,325.425385 
	C634.950867,332.161011 634.926758,332.164612 641.425293,332.169891 
	C647.590088,332.174927 653.754822,332.172455 659.919617,332.170532 
	C666.535217,332.168488 666.549988,332.167084 666.550659,325.674500 
	C666.555176,281.188049 666.553101,236.701630 666.552795,192.215195 
	C666.552795,191.382126 666.517700,190.547729 666.552917,189.716232 
	C666.668457,186.985703 665.479858,185.892563 662.659973,185.946838 
	C655.331604,186.087891 647.990784,186.198685 640.670715,185.913971 
	C636.538147,185.753235 635.107666,187.063065 635.168640,191.283264 
	C635.378235,205.775818 635.249207,220.273270 635.249207,234.768845 
	C635.249207,236.545395 635.249207,238.321930 635.249207,240.176727 
	C620.919067,240.176727 607.185730,240.176727 593.073120,240.176727 
	C593.073120,232.440338 593.073120,224.970154 593.073120,216.499985 
M878.546631,306.976776 
	C881.733521,292.517700 882.092529,277.950745 880.056335,263.321045 
	C876.957703,241.058548 862.697449,226.088150 837.761414,229.937286 
	C831.146057,230.958435 824.714233,233.168442 817.968262,234.891312 
	C817.923523,234.491226 817.763367,233.721817 817.762451,232.952209 
	C817.745911,219.128387 817.647156,205.303360 817.811829,191.481491 
	C817.858704,187.548416 816.948120,185.694794 812.525696,185.904800 
	C805.380066,186.244125 798.202209,186.143677 791.046570,185.934570 
	C787.404114,185.828110 785.984802,187.000381 786.052185,190.777054 
	C786.236267,201.099899 786.116699,211.428314 786.105164,221.754486 
	C786.065979,256.714905 786.049744,291.675446 785.934631,326.635620 
	C785.923401,330.054626 786.104858,332.521118 790.617798,332.076294 
	C794.246643,331.718567 797.972351,331.691071 801.595215,332.077850 
	C806.910278,332.645294 810.715881,331.725616 810.330627,326.571533 
	C818.206787,329.257874 825.942322,333.336334 834.070435,334.392365 
	C856.427612,337.297119 872.351624,331.201599 878.546631,306.976776 
M744.760376,232.835297 
	C740.989075,232.450073 740.962891,234.876297 740.970337,237.619186 
	C741.022034,256.783203 740.997620,275.947449 740.997620,295.111603 
	C740.997620,305.840179 739.847351,307.181702 729.111633,308.940399 
	C728.455200,309.047943 727.787476,309.099579 727.122742,309.141205 
	C715.625061,309.861023 712.018860,306.498993 712.007507,294.964905 
	C711.988892,275.967377 711.917175,256.969147 712.073242,237.972916 
	C712.105042,234.098297 710.974060,232.611801 706.960876,232.759872 
	C699.804932,233.023911 692.623047,233.051575 685.469849,232.752594 
	C681.166809,232.572723 680.093933,234.229462 680.173767,238.280930 
	C680.403625,249.941544 680.160400,261.610596 680.281128,273.274475 
	C680.405212,285.260162 680.194092,297.286957 681.141235,309.215454 
	C682.019165,320.272186 687.705200,328.540100 698.669495,332.475281 
	C707.368591,335.597412 716.390381,336.274841 725.244812,334.409302 
	C733.595581,332.649872 741.649597,329.481598 749.943970,326.898834 
	C749.020630,331.942566 752.391235,332.543976 756.869507,332.219696 
	C760.516602,331.955658 764.203552,332.041351 767.862366,332.205627 
	C770.724854,332.334106 772.064148,331.587524 772.059692,328.350800 
	C772.017334,297.862671 772.077820,267.374207 772.217468,236.886322 
	C772.231323,233.860443 771.273376,232.730133 768.216431,232.788345 
	C760.720154,232.931046 753.219299,232.834427 744.760376,232.835297 
M527.004150,211.601349 
	C527.001465,209.935974 527.271851,208.205582 526.896545,206.628891 
	C526.660522,205.637421 525.470032,204.138824 524.684570,204.124344 
	C515.256897,203.950546 505.824860,204.011993 496.687531,204.011993 
	C496.266388,204.947662 496.019928,205.241760 496.017365,205.537949 
	C495.948792,213.519608 495.819763,221.502426 495.908112,229.482742 
	C495.935516,231.960526 495.545471,233.387100 492.737427,234.044952 
	C488.330231,235.077454 482.338165,235.460373 480.207397,238.417267 
	C477.963470,241.531158 479.461884,247.344589 479.335144,251.978806 
	C479.312408,252.810272 479.358765,253.643570 479.338196,254.475159 
	C479.261353,257.583740 480.622070,259.029480 483.869812,258.884125 
	C487.653229,258.714752 491.450012,258.844574 495.674011,258.844574 
	C495.674011,261.109528 495.664673,262.897003 495.675476,264.684357 
	C495.757965,278.338501 495.581299,292.000977 496.013611,305.644135 
	C496.354004,316.386353 500.314148,325.694794 510.461700,330.710205 
	C522.188477,336.506104 534.547668,336.302765 546.905945,332.676666 
	C547.930603,332.376038 549.354248,331.020111 549.381165,330.118347 
	C549.587891,323.192932 549.494751,316.258545 549.494751,309.145782 
	C545.033936,309.145782 541.401489,309.270142 537.780640,309.117706 
	C531.780273,308.865051 527.293152,305.623322 527.188599,300.599243 
	C526.901794,286.827698 527.089722,273.046326 527.089722,258.830994 
	C532.875488,258.830994 538.320984,258.629486 543.743347,258.897522 
	C547.766541,259.096436 549.523376,257.931854 549.248535,253.596558 
	C548.911987,248.288452 548.939270,242.929626 549.244202,237.617691 
	C549.469238,233.697556 548.164734,232.220688 544.203979,232.390427 
	C538.607178,232.630280 532.992371,232.451172 527.004150,232.451172 
	C527.004150,225.506805 527.004150,219.040741 527.004150,211.601349 
M469.752045,320.447571 
	C469.752045,293.124969 469.699219,265.802155 469.810272,238.480026 
	C469.826477,234.489944 469.099121,232.190491 464.385071,232.371796 
	C457.065430,232.653275 449.726196,232.511383 442.396973,232.417480 
	C439.258850,232.377274 437.939819,233.539413 437.948242,236.822678 
	C438.025421,266.977264 438.028900,297.132263 437.949677,327.286865 
	C437.939819,331.042389 439.579895,332.290527 443.096954,332.205017 
	C448.425049,332.075409 453.760040,332.250885 459.089539,332.155334 
	C469.946320,331.960724 469.812561,334.470886 469.752045,320.447571 
M464.397552,221.013550 
	C465.110229,220.321487 465.869537,219.670898 466.528168,218.930771 
	C471.557526,213.279343 472.485107,206.756729 469.695068,199.966904 
	C466.938416,193.258270 461.463409,189.525040 454.246643,189.292114 
	C446.807281,189.052002 441.226807,192.586014 437.889709,199.350220 
	C434.511658,206.197388 436.107849,214.667694 441.704437,219.909897 
	C447.473083,225.313309 455.700439,225.894150 464.397552,221.013550 
z"/>
<path fill="#262B30" opacity="1.000000" stroke="none" 
	d="
M173.249878,153.755005 
	C215.588089,173.461166 240.134476,214.240494 237.829468,260.639679 
	C235.727951,302.942810 204.606766,343.915253 164.665070,356.963989 
	C159.084702,358.787048 155.966431,356.585754 155.951736,350.633820 
	C155.931198,342.304932 156.057953,333.975769 156.099792,325.646576 
	C156.142212,317.205109 155.322067,309.005493 148.991409,302.206940 
	C154.640366,300.995087 160.077667,300.199646 165.288101,298.644196 
	C184.076126,293.035370 194.693161,280.193939 197.577469,260.938019 
	C199.759155,246.372757 198.736649,232.450546 189.029388,220.279190 
	C188.046478,219.046783 188.467819,216.631821 188.380264,214.758972 
	C188.043747,207.560822 187.864578,200.353912 187.426956,193.162445 
	C187.176666,189.049301 184.303467,188.169250 181.060333,189.398819 
	C174.119781,192.030197 167.103241,194.625275 160.563339,198.078888 
	C157.365707,199.767502 154.554306,200.623291 151.238220,199.761398 
	C136.269669,195.870758 121.309166,196.182083 106.349861,199.728073 
	C103.116867,200.494431 100.497978,199.715088 97.471107,198.179260 
	C90.865494,194.827576 83.887451,192.181900 76.968544,189.486557 
	C73.070396,187.968002 70.386101,189.635391 70.057297,193.768295 
	C69.510551,200.640381 68.898636,207.573486 69.296234,214.423874 
	C69.469757,217.413559 69.705177,219.604767 67.621529,222.025589 
	C53.030598,238.977570 55.686260,284.317444 85.531158,295.967346 
	C92.707840,298.768707 100.333778,300.419189 107.235153,302.446777 
	C105.736511,306.155212 104.178192,310.281799 102.379143,314.300598 
	C101.829308,315.528931 100.831062,316.908081 99.676147,317.458313 
	C90.482109,321.838623 79.195175,319.126251 72.663002,311.119812 
	C69.941376,307.783936 67.579041,304.087036 64.506836,301.120209 
	C59.293438,296.085693 53.516483,295.260162 47.789639,298.427338 
	C49.043720,299.806854 50.225483,301.054626 51.349346,302.352539 
	C55.218723,306.821228 60.840054,310.708649 62.593773,315.898804 
	C67.938904,331.717834 82.420471,334.353851 96.375862,332.682465 
	C97.833534,332.507874 99.283859,332.272003 101.493195,331.956787 
	C101.493195,338.968994 101.726990,345.580963 101.414131,352.166962 
	C101.191460,356.854187 97.404228,358.632996 92.048615,356.796844 
	C79.506905,352.496948 68.118492,346.054413 58.060223,337.444305 
	C38.186661,320.432037 25.509647,299.126373 20.837086,273.293488 
	C15.970238,246.386490 20.289883,220.851364 34.561253,197.609222 
	C59.653095,156.745041 102.547386,137.782394 149.742050,146.297577 
	C157.644943,147.723450 165.194382,151.108368 173.249878,153.755005 
z"/>
<path fill="#272B30" opacity="1.000000" stroke="none" 
	d="
M354.365784,297.649597 
	C365.625824,307.847626 378.622284,305.606995 391.759705,304.364410 
	C391.759705,294.503235 391.759705,285.059998 391.759705,274.873077 
	C386.455200,274.873077 381.054871,274.764069 375.661499,274.911224 
	C372.039703,275.010010 370.621368,273.636932 370.764069,269.908997 
	C371.006073,263.588013 370.653717,257.242249 370.968323,250.927689 
	C371.038361,249.521362 372.820465,247.031815 373.844421,247.016190 
	C390.135071,246.767914 406.430603,246.841400 423.109863,246.841400 
	C423.278503,249.463135 423.530273,251.581985 423.533203,253.701187 
	C423.562531,275.023987 423.375244,296.349457 423.690735,317.667664 
	C423.758575,322.254150 422.189331,324.622345 418.344666,326.482544 
	C402.934387,333.938629 386.684418,336.069824 369.794098,334.624481 
	C359.255920,333.722748 349.065247,331.573273 339.867981,326.113190 
	C328.023224,319.081421 320.123657,308.594971 316.215271,295.656830 
	C308.778992,271.040039 308.655609,246.122147 315.988739,221.422577 
	C322.721222,198.745972 337.683167,184.952606 361.454224,181.670547 
	C378.625397,179.299728 395.584869,180.140732 412.205353,185.700180 
	C416.820129,187.243774 418.198639,189.471863 416.760071,194.157516 
	C415.204895,199.223145 413.989960,204.435562 413.158325,209.668442 
	C412.410034,214.376709 410.474762,215.084213 406.113922,213.680222 
	C395.343903,210.212814 384.184418,209.786652 373.022736,211.082520 
	C358.329132,212.788422 348.501709,222.063171 345.183136,237.614716 
	C342.051086,252.292068 341.959106,267.130829 346.095367,281.595612 
	C347.689392,287.169983 351.375885,292.146027 354.365784,297.649597 
z"/>
<path fill="#272C31" opacity="1.000000" stroke="none" 
	d="
M593.073120,216.999969 
	C593.073120,224.970154 593.073120,232.440338 593.073120,240.176727 
	C607.185730,240.176727 620.919067,240.176727 635.249207,240.176727 
	C635.249207,238.321930 635.249207,236.545395 635.249207,234.768845 
	C635.249207,220.273270 635.378235,205.775818 635.168640,191.283264 
	C635.107666,187.063065 636.538147,185.753235 640.670715,185.913971 
	C647.990784,186.198685 655.331604,186.087891 662.659973,185.946838 
	C665.479858,185.892563 666.668457,186.985703 666.552917,189.716232 
	C666.517700,190.547729 666.552795,191.382126 666.552795,192.215195 
	C666.553101,236.701630 666.555176,281.188049 666.550659,325.674500 
	C666.549988,332.167084 666.535217,332.168488 659.919617,332.170532 
	C653.754822,332.172455 647.590088,332.174927 641.425293,332.169891 
	C634.926758,332.164612 634.950867,332.161011 634.990540,325.425385 
	C635.089661,308.612549 635.165283,291.799591 635.248169,274.986664 
	C635.256165,273.357971 635.249146,271.729187 635.249146,269.829742 
	C621.073303,269.829742 607.328857,269.829742 593.073120,269.829742 
	C593.073120,271.662720 593.073059,273.456360 593.073059,275.250000 
	C593.073059,292.411438 592.972839,309.573914 593.148132,326.733551 
	C593.188660,330.707703 592.272278,332.460144 587.904175,332.259613 
	C580.754761,331.931396 573.576538,332.053955 566.416016,332.222961 
	C563.140137,332.300262 561.604675,331.487610 561.612000,327.813507 
	C561.702820,281.994324 561.701355,236.174850 561.614319,190.355652 
	C561.607361,186.690552 563.132996,185.856094 566.432434,185.938599 
	C573.592407,186.117599 580.766235,186.172287 587.921997,185.922394 
	C591.802002,185.786865 593.266785,186.989365 593.148865,191.010117 
	C592.900024,199.500168 593.073120,208.002625 593.073120,216.999969 
z"/>
<path fill="#262B30" opacity="1.000000" stroke="none" 
	d="
M878.402527,307.360413 
	C872.351624,331.201599 856.427612,337.297119 834.070435,334.392365 
	C825.942322,333.336334 818.206787,329.257874 810.330627,326.571533 
	C810.715881,331.725616 806.910278,332.645294 801.595215,332.077850 
	C797.972351,331.691071 794.246643,331.718567 790.617798,332.076294 
	C786.104858,332.521118 785.923401,330.054626 785.934631,326.635620 
	C786.049744,291.675446 786.065979,256.714905 786.105164,221.754486 
	C786.116699,211.428314 786.236267,201.099899 786.052185,190.777054 
	C785.984802,187.000381 787.404114,185.828110 791.046570,185.934570 
	C798.202209,186.143677 805.380066,186.244125 812.525696,185.904800 
	C816.948120,185.694794 817.858704,187.548416 817.811829,191.481491 
	C817.647156,205.303360 817.745911,219.128387 817.762451,232.952209 
	C817.763367,233.721817 817.923523,234.491226 817.968262,234.891312 
	C824.714233,233.168442 831.146057,230.958435 837.761414,229.937286 
	C862.697449,226.088150 876.957703,241.058548 880.056335,263.321045 
	C882.092529,277.950745 881.733521,292.517700 878.402527,307.360413 
M848.399658,266.335144 
	C846.500122,260.261902 842.824219,255.618973 836.154907,255.743179 
	C830.802063,255.842865 825.398315,257.278198 820.199402,258.759979 
	C818.877258,259.136810 817.466370,261.927185 817.427612,263.638702 
	C817.178711,274.626221 817.300476,285.622070 817.300415,296.615204 
	C817.300415,306.299835 818.603455,307.787079 828.303589,308.978760 
	C830.448059,309.242188 832.616028,309.477295 834.771240,309.460846 
	C843.307190,309.395660 848.048279,306.246063 848.756653,297.796936 
	C849.608765,287.632538 848.797241,277.328674 848.399658,266.335144 
z"/>
<path fill="#252A2F" opacity="1.000000" stroke="none" 
	d="
M745.240356,232.834702 
	C753.219299,232.834427 760.720154,232.931046 768.216431,232.788345 
	C771.273376,232.730133 772.231323,233.860443 772.217468,236.886322 
	C772.077820,267.374207 772.017334,297.862671 772.059692,328.350800 
	C772.064148,331.587524 770.724854,332.334106 767.862366,332.205627 
	C764.203552,332.041351 760.516602,331.955658 756.869507,332.219696 
	C752.391235,332.543976 749.020630,331.942566 749.943970,326.898834 
	C741.649597,329.481598 733.595581,332.649872 725.244812,334.409302 
	C716.390381,336.274841 707.368591,335.597412 698.669495,332.475281 
	C687.705200,328.540100 682.019165,320.272186 681.141235,309.215454 
	C680.194092,297.286957 680.405212,285.260162 680.281128,273.274475 
	C680.160400,261.610596 680.403625,249.941544 680.173767,238.280930 
	C680.093933,234.229462 681.166809,232.572723 685.469849,232.752594 
	C692.623047,233.051575 699.804932,233.023911 706.960876,232.759872 
	C710.974060,232.611801 712.105042,234.098297 712.073242,237.972916 
	C711.917175,256.969147 711.988892,275.967377 712.007507,294.964905 
	C712.018860,306.498993 715.625061,309.861023 727.122742,309.141205 
	C727.787476,309.099579 728.455200,309.047943 729.111633,308.940399 
	C739.847351,307.181702 740.997620,305.840179 740.997620,295.111603 
	C740.997620,275.947449 741.022034,256.783203 740.970337,237.619186 
	C740.962891,234.876297 740.989075,232.450073 745.240356,232.834702 
z"/>
<path fill="#262B30" opacity="1.000000" stroke="none" 
	d="
M527.004150,212.088013 
	C527.004150,219.040741 527.004150,225.506805 527.004150,232.451172 
	C532.992371,232.451172 538.607178,232.630280 544.203979,232.390427 
	C548.164734,232.220688 549.469238,233.697556 549.244202,237.617691 
	C548.939270,242.929626 548.911987,248.288452 549.248535,253.596558 
	C549.523376,257.931854 547.766541,259.096436 543.743347,258.897522 
	C538.320984,258.629486 532.875488,258.830994 527.089722,258.830994 
	C527.089722,273.046326 526.901794,286.827698 527.188599,300.599243 
	C527.293152,305.623322 531.780273,308.865051 537.780640,309.117706 
	C541.401489,309.270142 545.033936,309.145782 549.494751,309.145782 
	C549.494751,316.258545 549.587891,323.192932 549.381165,330.118347 
	C549.354248,331.020111 547.930603,332.376038 546.905945,332.676666 
	C534.547668,336.302765 522.188477,336.506104 510.461700,330.710205 
	C500.314148,325.694794 496.354004,316.386353 496.013611,305.644135 
	C495.581299,292.000977 495.757965,278.338501 495.675476,264.684357 
	C495.664673,262.897003 495.674011,261.109528 495.674011,258.844574 
	C491.450012,258.844574 487.653229,258.714752 483.869812,258.884125 
	C480.622070,259.029480 479.261353,257.583740 479.338196,254.475159 
	C479.358765,253.643570 479.312408,252.810272 479.335144,251.978806 
	C479.461884,247.344589 477.963470,241.531158 480.207397,238.417267 
	C482.338165,235.460373 488.330231,235.077454 492.737427,234.044952 
	C495.545471,233.387100 495.935516,231.960526 495.908112,229.482742 
	C495.819763,221.502426 495.948792,213.519608 496.017365,205.537949 
	C496.019928,205.241760 496.266388,204.947662 496.687531,204.011993 
	C505.824860,204.011993 515.256897,203.950546 524.684570,204.124344 
	C525.470032,204.138824 526.660522,205.637421 526.896545,206.628891 
	C527.271851,208.205582 527.001465,209.935974 527.004150,212.088013 
z"/>
<path fill="#272C31" opacity="1.000000" stroke="none" 
	d="
M469.752014,320.935974 
	C469.812561,334.470886 469.946320,331.960724 459.089539,332.155334 
	C453.760040,332.250885 448.425049,332.075409 443.096954,332.205017 
	C439.579895,332.290527 437.939819,331.042389 437.949677,327.286865 
	C438.028900,297.132263 438.025421,266.977264 437.948242,236.822678 
	C437.939819,233.539413 439.258850,232.377274 442.396973,232.417480 
	C449.726196,232.511383 457.065430,232.653275 464.385071,232.371796 
	C469.099121,232.190491 469.826477,234.489944 469.810272,238.480026 
	C469.699219,265.802155 469.752045,293.124969 469.752014,320.935974 
z"/>
<path fill="#282D32" opacity="1.000000" stroke="none" 
	d="
M464.106232,221.242188 
	C455.700439,225.894150 447.473083,225.313309 441.704437,219.909897 
	C436.107849,214.667694 434.511658,206.197388 437.889709,199.350220 
	C441.226807,192.586014 446.807281,189.052002 454.246643,189.292114 
	C461.463409,189.525040 466.938416,193.258270 469.695068,199.966904 
	C472.485107,206.756729 471.557526,213.279343 466.528168,218.930771 
	C465.869537,219.670898 465.110229,220.321487 464.106232,221.242188 
z"/>
<path fill="#FCFCFC" opacity="1.000000" stroke="none" 
	d="
M848.552795,266.710144 
	C848.797241,277.328674 849.608765,287.632538 848.756653,297.796936 
	C848.048279,306.246063 843.307190,309.395660 834.771240,309.460846 
	C832.616028,309.477295 830.448059,309.242188 828.303589,308.978760 
	C818.603455,307.787079 817.300415,306.299835 817.300415,296.615204 
	C817.300476,285.622070 817.178711,274.626221 817.427612,263.638702 
	C817.466370,261.927185 818.877258,259.136810 820.199402,258.759979 
	C825.398315,257.278198 830.802063,255.842865 836.154907,255.743179 
	C842.824219,255.618973 846.500122,260.261902 848.552795,266.710144 
z"/>
</svg>